<?xml version="1.0" standalone="no"?>
<!DOCTYPE svg PUBLIC "-//W3C//DTD SVG 20010904//EN"
 "http://www.w3.org/TR/2001/REC-SVG-20010904/DTD/svg10.dtd">
<svg version="1.0" xmlns="http://www.w3.org/2000/svg"
 width="840.000000pt" height="795.000000pt" viewBox="0 0 840.000000 795.000000"
 preserveAspectRatio="xMidYMid meet">
<metadata>
Created by potrace 1.16, written by Peter Selinger 2001-2019
</metadata>
<g transform="translate(0.000000,795.000000) scale(0.100000,-0.100000)"
fill="#000000" stroke="none">
<path d="M3974 7504 c-20 -19 -24 -31 -19 -52 10 -40 34 -62 70 -62 36 0 60
22 70 62 9 34 -31 78 -70 78 -14 0 -37 -11 -51 -26z"/>
<path d="M4146 7508 c-9 -12 -16 -33 -16 -46 0 -29 42 -72 70 -72 54 0 91 88
52 123 -28 25 -87 22 -106 -5z"/>
<path d="M4324 7504 c-20 -19 -24 -31 -19 -52 10 -40 34 -62 70 -62 40 0 66
27 67 71 2 64 -71 91 -118 43z"/>
<path d="M3803 7494 c-20 -20 -24 -31 -19 -57 8 -42 28 -60 65 -60 41 0 71 28
71 67 0 37 -7 49 -37 65 -33 17 -51 14 -80 -15z"/>
<path d="M4507 7500 c-53 -42 -25 -123 44 -123 36 0 57 18 65 59 12 61 -59
103 -109 64z"/>
<path d="M3660 7493 c-30 -11 -50 -37 -50 -65 0 -34 39 -78 70 -78 31 0 70 44
70 78 0 43 -51 79 -90 65z"/>
<path d="M4700 7493 c-30 -11 -50 -37 -50 -65 0 -34 39 -78 70 -78 31 0 70 44
70 78 0 43 -51 79 -90 65z"/>
<path d="M3484 7459 c-52 -19 -62 -79 -20 -116 35 -30 61 -29 91 2 56 55 2
141 -71 114z"/>
<path d="M4840 7440 c-27 -27 -25 -66 5 -95 30 -30 54 -31 89 -4 32 25 36 77
8 102 -25 23 -78 21 -102 -3z"/>
<path d="M3320 7423 c-56 -20 -68 -87 -23 -123 45 -35 113 -2 113 55 0 42 -52
82 -90 68z"/>
<path d="M5033 7420 c-43 -17 -56 -73 -25 -108 28 -34 65 -37 97 -10 37 32 37
74 1 105 -29 25 -39 27 -73 13z"/>
<path d="M3126 7359 c-53 -41 -21 -119 48 -119 61 0 90 77 44 120 -28 26 -58
26 -92 -1z"/>
<path d="M5180 7360 c-43 -43 -14 -120 46 -120 69 0 101 78 48 119 -34 26 -68
27 -94 1z"/>
<path d="M2951 7294 c-27 -35 -26 -55 4 -88 44 -47 118 -21 118 42 0 69 -80
99 -122 46z"/>
<path d="M5353 7312 c-21 -13 -33 -60 -23 -86 19 -51 78 -60 115 -20 30 33 31
53 4 88 -21 26 -69 35 -96 18z"/>
<path d="M2795 7235 c-14 -13 -25 -35 -25 -48 0 -54 87 -89 123 -49 25 28 22
87 -5 106 -32 23 -65 20 -93 -9z"/>
<path d="M5512 7244 c-28 -20 -31 -83 -4 -107 27 -24 74 -21 100 6 29 30 28
62 -3 92 -28 29 -61 32 -93 9z"/>
<path d="M2635 7165 c-30 -30 -31 -54 -4 -89 42 -54 123 -23 121 46 -2 63 -72
89 -117 43z"/>
<path d="M5671 7172 c-28 -22 -31 -75 -6 -102 27 -30 78 -27 105 7 51 65 -35
148 -99 95z"/>
<path d="M3946 7154 c-49 -7 -172 -34 -275 -58 -102 -25 -229 -50 -281 -55
-150 -16 -325 -82 -660 -252 -224 -114 -374 -206 -492 -301 -149 -122 -552
-502 -603 -570 -48 -64 -200 -308 -277 -446 -77 -137 -177 -419 -199 -564 -7
-46 -28 -104 -60 -173 -86 -178 -128 -408 -115 -625 29 -503 48 -718 76 -860
24 -117 36 -151 143 -416 146 -362 212 -477 441 -774 62 -80 132 -181 157
-225 63 -114 229 -279 434 -432 190 -141 490 -323 544 -330 45 -6 93 16 117
52 10 15 23 24 33 21 9 -3 35 -10 59 -16 39 -10 42 -13 42 -45 0 -60 37 -141
82 -180 75 -64 125 -76 388 -90 263 -15 331 -24 475 -63 95 -26 111 -27 310
-26 162 1 223 5 265 18 84 25 278 72 450 110 272 60 336 98 362 217 l14 62 47
14 48 14 42 -47 c36 -39 49 -47 88 -51 58 -7 84 7 196 100 49 41 176 136 283
212 107 76 232 167 276 201 147 114 282 279 387 474 26 47 74 117 108 155 180
202 269 370 304 576 27 159 83 373 148 563 l62 181 0 465 c0 534 3 510 -102
775 -30 77 -82 219 -115 315 -69 200 -149 392 -199 476 -19 31 -80 103 -135
158 -96 96 -105 108 -162 227 -117 245 -259 376 -632 589 -80 46 -188 113
-240 148 -333 230 -338 232 -689 313 -785 183 -907 200 -1145 163z m447 -39
c150 -26 732 -156 896 -200 134 -37 217 -79 366 -185 122 -87 200 -136 435
-273 284 -165 447 -326 540 -532 56 -126 63 -135 163 -231 138 -133 201 -252
326 -616 32 -95 84 -237 115 -316 98 -249 97 -244 106 -602 5 -173 5 -388 0
-477 -8 -157 -9 -165 -58 -310 -63 -183 -112 -371 -152 -573 -45 -228 -119
-371 -290 -565 -40 -45 -97 -126 -130 -185 -147 -263 -253 -373 -595 -615
-131 -93 -284 -207 -339 -253 -106 -87 -143 -105 -188 -89 -59 20 -98 90 -123
220 -19 101 -42 150 -115 241 -31 39 -65 84 -75 100 -18 27 -18 29 -1 41 10 8
50 19 89 25 102 17 150 47 310 193 85 78 163 140 198 157 132 67 326 348 533
775 159 326 222 563 246 930 22 327 -28 787 -116 1068 -37 116 -74 192 -146
297 -332 489 -371 543 -459 625 -72 68 -125 103 -239 159 -55 27 -124 71 -164
105 -194 165 -698 360 -1129 436 l-98 18 -47 93 c-26 52 -49 94 -52 94 -3 0
-27 -43 -53 -95 l-47 -95 -42 0 c-118 0 -352 -51 -550 -119 -336 -116 -667
-290 -883 -464 -116 -94 -398 -385 -450 -466 -25 -38 -72 -136 -105 -217 -50
-122 -73 -164 -130 -239 -117 -153 -175 -303 -222 -580 -18 -109 -22 -170 -22
-375 -1 -269 -1 -272 74 -565 21 -82 43 -198 49 -256 12 -118 46 -227 107
-338 64 -115 255 -424 296 -476 70 -90 241 -255 353 -341 61 -47 148 -118 194
-159 51 -45 122 -94 182 -126 116 -62 154 -97 146 -131 -4 -13 -27 -47 -52
-77 -59 -69 -69 -90 -89 -181 -42 -189 -89 -270 -158 -270 -88 0 -588 334
-791 529 -96 93 -137 144 -191 240 -20 34 -88 129 -151 211 -227 293 -295 413
-450 800 -132 328 -148 406 -182 875 -40 556 -18 757 107 1005 26 52 42 100
50 155 14 96 81 302 142 440 47 106 104 204 259 443 l96 149 274 253 c151 139
306 277 344 306 191 143 647 378 910 469 46 16 128 33 195 41 63 7 189 32 280
54 310 78 459 87 703 45z m-119 -873 c56 78 74 97 90 93 12 -2 77 -12 146 -21
69 -10 131 -20 139 -25 9 -4 -61 -32 -185 -73 -221 -74 -222 -69 16 -50 l75 6
-55 -56 c-30 -31 -62 -56 -70 -56 -9 0 -56 14 -105 30 -49 17 -93 29 -98 27
-5 -1 52 -86 126 -187 74 -102 132 -186 128 -188 -4 -1 -69 30 -144 69 l-136
72 -3 120 -3 119 -140 -192 c-76 -106 -141 -188 -143 -182 -1 5 9 76 23 158
l26 147 -110 111 c-61 61 -111 114 -111 117 0 4 96 -24 213 -62 116 -38 216
-68 220 -66 4 1 -21 42 -57 91 l-65 89 45 89 c25 49 57 115 72 146 l27 57 5
-240 5 -240 69 97z m-194 201 c0 -5 -11 -26 -23 -48 l-23 -40 -169 -26 c-94
-15 -172 -27 -175 -28 -3 0 53 -58 123 -129 l127 -127 -29 -170 c-17 -93 -28
-171 -26 -173 2 -2 74 33 159 78 l156 81 156 -81 c85 -45 157 -80 159 -78 2 2
-9 80 -26 173 l-29 170 127 127 c70 71 126 129 123 129 -3 1 -81 13 -175 28
l-170 26 -23 43 c-13 24 -22 45 -19 48 8 9 250 -44 408 -90 385 -110 616 -217
808 -373 31 -26 94 -64 141 -86 176 -81 280 -179 441 -419 55 -81 141 -205
190 -275 50 -71 108 -162 129 -203 70 -139 117 -320 154 -585 25 -188 28 -217
17 -213 -6 1 -175 138 -375 303 l-365 300 -1 164 c0 151 1 163 18 159 9 -3
147 -85 306 -182 176 -108 295 -175 304 -171 9 3 11 9 6 14 -5 4 -137 86 -294
181 -157 95 -297 182 -312 192 l-28 19 0 160 c0 101 4 159 10 159 6 0 49 -16
97 -35 97 -39 103 -40 103 -22 0 6 -46 30 -101 52 -68 26 -104 45 -107 57 -3
13 -14 18 -42 18 -25 0 -220 74 -618 235 -320 129 -584 235 -587 235 -3 0 -5
-6 -5 -13 0 -8 213 -99 528 -226 290 -117 531 -217 536 -222 6 -5 -85 -9 -223
-9 l-234 0 -294 180 c-162 99 -299 180 -304 180 -37 0 26 -46 256 -185 146
-88 265 -163 265 -167 0 -5 -46 -8 -103 -8 l-102 0 -152 125 c-83 69 -156 125
-162 125 -27 0 -2 -26 119 -126 72 -59 130 -111 130 -116 0 -4 -40 -8 -89 -8
l-89 0 -71 77 c-47 52 -74 74 -80 68 -7 -7 8 -31 44 -72 30 -34 55 -64 55 -67
0 -3 -38 -6 -84 -6 l-84 0 -28 70 c-15 39 -33 70 -41 70 -17 0 -17 0 12 -71
26 -65 27 -63 -35 -73 -79 -13 -72 -18 -98 77 -17 59 -29 87 -39 87 -8 0 -13
-6 -11 -12 3 -7 15 -54 28 -103 l24 -91 -45 -56 c-24 -31 -46 -57 -49 -57 -3
0 -19 19 -37 43 l-31 43 19 94 c10 52 21 104 24 117 4 15 1 22 -9 22 -10 0
-18 -19 -26 -57 -31 -155 -29 -150 -59 -133 -25 13 -25 13 -6 75 8 27 12 52 9
57 -12 18 -22 5 -36 -44 l-15 -53 -81 -3 c-45 -2 -82 0 -82 3 0 4 13 26 30 49
26 39 29 56 10 56 -4 0 -25 -25 -45 -55 l-38 -55 -59 0 c-32 0 -58 4 -58 9 0
4 33 46 74 92 67 76 80 99 57 99 -4 0 -47 -45 -96 -100 l-87 -100 -79 0 c-44
0 -79 4 -79 9 0 5 79 80 175 167 154 139 195 184 168 184 -5 0 -97 -81 -206
-180 l-198 -180 -132 0 c-113 0 -129 2 -117 14 8 8 152 107 320 221 168 114
307 209 309 211 3 2 0 9 -5 14 -6 6 -136 -76 -354 -225 l-345 -235 -292 0
-293 0 0 -198 0 -199 -285 -193 c-247 -168 -300 -210 -266 -210 4 0 124 79
267 176 142 97 265 178 272 181 9 4 12 -38 12 -189 l0 -194 -390 -354 c-256
-232 -387 -357 -380 -364 6 -6 18 -3 32 11 512 465 722 653 729 653 5 0 9 -86
9 -198 l0 -197 -335 -379 c-294 -333 -349 -401 -322 -401 3 0 135 146 292 325
158 179 304 343 326 365 l39 40 0 -278 0 -277 -260 -377 c-181 -262 -257 -380
-250 -387 8 -8 13 -7 18 0 60 94 479 694 485 694 4 0 6 -77 5 -171 l-3 -172
-54 -18 c-63 -20 -101 -46 -118 -80 -6 -13 -16 -68 -22 -123 l-11 -99 -55 -59
c-61 -65 -85 -126 -85 -213 0 -121 75 -185 223 -192 111 -5 127 -10 127 -33 0
-11 7 -20 15 -20 20 0 35 -40 35 -95 0 -28 10 -62 28 -96 l28 -54 -21 -52
c-11 -28 -24 -55 -27 -59 -12 -12 -59 26 -181 145 -142 139 -190 202 -330 432
-177 292 -220 393 -232 550 -4 46 -24 155 -46 242 -82 329 -95 440 -79 676 25
377 102 654 222 802 70 85 105 144 144 248 76 200 147 304 316 469 l55 54 564
167 c310 93 599 178 642 191 47 14 77 28 77 36 0 8 -2 14 -5 14 -2 0 -277 -81
-611 -180 -333 -100 -608 -179 -611 -177 -5 6 124 120 202 179 76 57 148 102
256 161 l86 46 169 5 c93 2 231 5 307 5 120 1 137 3 137 17 0 15 -24 16 -267
9 -168 -4 -264 -3 -258 3 38 35 420 179 590 222 162 41 345 63 345 43z m-1450
-2028 c0 -893 -3 -1125 -12 -1125 -7 0 -23 -3 -35 -6 l-23 -6 0 1131 0 1131
35 0 35 0 0 -1125z m110 11 c0 -1220 5 -1126 -56 -1126 l-24 0 0 1120 0 1120
40 0 40 0 0 -1114z m100 4 l0 -1110 -35 0 -35 0 0 1110 0 1110 35 0 35 0 0
-1110z m108 3 l-3 -1108 -37 -3 -38 -3 0 1110 0 1111 40 0 40 0 -2 -1107z
m1100 1093 c29 -16 73 -60 115 -118 19 -26 27 -49 27 -77 0 -23 -3 -41 -6 -41
-3 0 -28 24 -55 54 -62 69 -110 88 -203 84 -44 -2 -71 -8 -74 -15 -3 -10 17
-13 78 -13 50 0 91 -5 108 -14 53 -28 152 -148 152 -184 0 -12 -3 -22 -6 -22
-3 0 -31 27 -62 59 -71 73 -95 81 -269 81 -109 0 -133 -3 -133 -14 0 -12 29
-15 153 -18 152 -3 154 -3 191 -32 70 -53 153 -186 117 -186 -5 0 -21 16 -36
36 -15 19 -45 49 -68 65 -36 26 -48 29 -114 29 -42 0 -73 -4 -73 -10 0 -5 24
-10 53 -10 74 0 131 -31 190 -105 79 -99 78 -155 -1 -68 -69 76 -90 83 -232
83 -93 0 -121 -3 -118 -12 3 -9 42 -15 129 -18 101 -4 129 -9 153 -24 35 -25
126 -143 126 -166 0 -33 -14 -29 -48 16 -20 25 -54 56 -77 70 -42 24 -43 24
-319 24 -218 0 -277 -3 -274 -12 4 -10 73 -14 284 -18 l280 -5 31 -25 c48 -38
123 -139 123 -166 0 -13 -3 -24 -6 -24 -3 0 -29 25 -57 57 -29 31 -66 62 -84
70 -44 18 -83 17 -83 -2 0 -9 9 -15 25 -15 50 0 109 -47 178 -141 24 -32 36
-79 21 -79 -3 0 -27 23 -52 52 -26 28 -65 59 -87 69 -51 24 -155 26 -155 4 0
-12 13 -15 60 -15 34 0 73 -6 88 -14 52 -27 152 -150 152 -185 0 -12 -3 -21
-6 -21 -3 0 -31 27 -62 59 -59 61 -112 86 -169 79 -50 -6 -36 -25 21 -30 40
-3 65 -12 91 -32 67 -52 152 -186 118 -186 -5 0 -27 22 -50 49 -44 51 -95 81
-137 81 -41 0 -31 -14 24 -33 40 -14 61 -31 106 -85 53 -65 74 -106 60 -120
-4 -4 -26 14 -49 40 -84 94 -45 88 -599 88 -427 0 -488 -2 -488 -15 0 -13 61
-15 486 -15 478 0 487 0 521 -21 40 -25 133 -144 133 -170 0 -32 -14 -28 -44
12 -40 52 -96 90 -145 96 -34 5 -41 3 -41 -11 0 -11 9 -16 33 -16 43 0 93 -38
152 -114 38 -50 59 -106 39 -106 -3 0 -29 25 -57 57 -62 67 -96 83 -177 83
-47 0 -60 -3 -60 -15 0 -12 13 -15 60 -15 34 0 73 -6 88 -14 53 -28 152 -148
152 -184 0 -12 -3 -22 -6 -22 -3 0 -27 23 -52 52 -83 91 -59 88 -604 88 -418
0 -478 -2 -478 -15 0 -13 60 -15 480 -15 396 0 486 -3 508 -14 52 -27 152
-150 152 -185 0 -31 -11 -26 -58 29 -53 62 -87 80 -154 83 -71 3 -75 -19 -4
-25 40 -3 65 -12 91 -32 67 -52 152 -186 118 -186 -5 0 -27 22 -50 49 -69 79
-76 81 -352 81 -143 0 -241 -4 -241 -9 0 -6 99 -11 238 -13 218 -3 240 -5 272
-24 41 -24 140 -148 140 -175 0 -29 -16 -23 -47 18 -15 20 -48 49 -72 65 -42
26 -52 28 -148 28 -85 0 -103 -3 -103 -15 0 -12 18 -15 101 -15 86 0 107 -3
136 -21 44 -27 133 -145 133 -175 0 -34 -11 -30 -44 16 -39 53 -95 90 -145 97
-32 4 -41 2 -41 -9 0 -10 13 -17 39 -21 51 -6 89 -36 145 -112 40 -54 59 -105
40 -105 -3 0 -28 24 -55 54 -61 67 -100 86 -178 86 -48 0 -61 -3 -61 -15 0
-12 13 -15 60 -15 34 0 73 -6 88 -14 53 -28 152 -148 152 -184 0 -12 -3 -22
-6 -22 -3 0 -27 23 -52 52 -26 28 -65 59 -87 69 -49 22 -125 25 -125 5 0 -9
17 -15 55 -18 34 -3 66 -13 83 -25 44 -32 132 -146 132 -170 0 -32 -13 -28
-45 13 -15 19 -45 49 -68 65 -36 26 -48 29 -114 29 -92 0 -96 -16 -4 -22 56
-3 75 -9 106 -32 67 -52 152 -186 118 -186 -5 0 -27 22 -50 49 -46 53 -95 81
-142 81 -42 0 -40 -17 3 -25 53 -10 91 -39 145 -111 47 -62 64 -104 42 -104
-6 0 -23 17 -38 37 -36 46 -108 93 -146 93 -37 0 -31 -22 9 -31 16 -3 42 -14
58 -24 40 -26 126 -143 126 -171 0 -34 -11 -30 -44 16 -17 22 -48 52 -69 67
l-40 28 -296 5 -296 5 -55 35 c-38 24 -50 36 -37 38 35 7 19 32 -21 32 -31 0
-45 7 -75 38 -21 21 -34 41 -31 45 4 4 36 7 71 7 35 0 63 4 63 10 0 6 -35 10
-84 10 -82 0 -85 1 -128 36 -23 20 -44 40 -46 45 -2 5 39 9 92 9 57 0 96 4 96
10 0 6 -12 10 -27 10 -149 1 -270 6 -280 13 -10 6 -13 240 -13 1111 0 606 3
1106 7 1109 3 4 240 7 525 7 428 0 524 -2 546 -14z m1380 -671 c1 -374 0 -689
-3 -700 -2 -11 -20 -30 -40 -42 -32 -21 -46 -23 -190 -23 -131 0 -155 -2 -155
-15 0 -13 21 -15 130 -15 72 0 130 -3 130 -7 0 -4 -14 -22 -32 -40 -26 -27
-39 -33 -75 -33 -32 0 -43 -4 -43 -15 0 -10 10 -15 30 -15 36 0 36 0 10 -50
l-20 -40 -402 0 -401 0 -42 -25 c-23 -13 -54 -40 -69 -60 -15 -19 -31 -35 -37
-35 -41 0 57 145 125 185 36 21 55 25 125 25 62 0 82 3 78 13 -3 8 -31 12 -95
11 -81 0 -95 -3 -131 -27 -21 -14 -52 -42 -66 -62 -15 -19 -31 -35 -36 -35
-21 0 -6 42 35 97 60 82 96 106 168 111 69 5 75 25 9 30 -56 4 -120 -27 -170
-84 -44 -50 -51 -53 -51 -21 0 28 83 133 129 164 32 22 43 23 222 23 161 0
189 2 189 15 0 13 -27 15 -182 15 -212 0 -238 -7 -305 -84 -22 -25 -43 -46
-47 -46 -21 0 1 54 42 105 65 81 93 99 159 105 75 7 85 30 13 30 -67 0 -108
-20 -165 -81 -25 -27 -48 -49 -50 -49 -3 0 -5 11 -5 24 0 25 53 98 109 151 27
25 43 31 93 35 82 7 92 30 13 30 -67 0 -96 -14 -155 -74 -24 -25 -48 -46 -52
-46 -21 0 -3 43 41 102 50 66 112 108 159 108 12 0 22 5 22 10 0 18 -74 11
-110 -11 -19 -11 -52 -39 -72 -62 -37 -43 -55 -45 -44 -5 10 39 94 136 136
158 30 15 59 20 120 20 61 0 81 3 77 13 -3 8 -31 12 -95 11 -81 0 -95 -3 -131
-27 -21 -14 -52 -42 -66 -62 -30 -39 -45 -44 -45 -16 0 25 80 132 119 161 18
12 50 24 71 27 46 6 56 33 13 33 -46 -1 -106 -34 -150 -84 -22 -25 -43 -46
-47 -46 -21 0 1 55 42 105 76 95 96 105 218 105 86 0 104 3 104 15 0 12 -18
15 -100 15 -119 0 -156 -14 -218 -85 -22 -25 -42 -45 -46 -45 -21 0 1 55 42
105 58 73 104 105 148 105 24 0 34 5 34 15 0 19 -49 20 -93 1 -18 -7 -53 -36
-79 -64 -26 -28 -50 -46 -54 -41 -13 21 8 59 70 125 l64 69 497 5 c386 4 499
8 503 18 3 9 -100 12 -491 12 l-494 0 -39 -26 c-21 -15 -52 -42 -67 -60 -16
-19 -33 -34 -38 -34 -22 0 -5 42 40 102 65 86 109 108 214 108 45 0 77 4 77
10 0 6 -37 10 -92 10 -107 0 -138 -13 -200 -83 -20 -23 -40 -39 -43 -35 -14
13 4 53 50 110 47 60 105 98 150 98 16 0 25 6 25 15 0 18 -21 19 -74 4 -26 -7
-58 -30 -93 -66 -30 -30 -57 -53 -60 -50 -21 22 77 157 137 189 23 12 56 18
97 18 49 0 63 3 63 15 0 12 -14 15 -62 15 -81 -1 -132 -24 -185 -84 -22 -25
-43 -46 -47 -46 -3 0 -6 16 -6 35 0 50 81 158 145 193 14 8 175 11 545 9 l525
-2 3 -680z m102 0 c0 -646 -1 -685 -17 -685 -10 0 -28 -3 -40 -6 l-23 -6 0
691 0 691 40 0 40 0 0 -685z m100 -10 l0 -695 -35 0 -35 0 0 695 0 695 35 0
35 0 0 -695z m110 -95 l0 -790 -24 0 c-45 0 -56 10 -56 52 0 25 8 50 20 65 11
14 20 35 20 45 0 11 -9 22 -20 25 -20 5 -20 14 -20 699 l0 694 40 0 40 0 0
-790z m96 243 c-3 -302 -5 -568 -5 -593 0 -25 2 -134 5 -242 l5 -198 -36 0
-35 0 0 790 0 790 35 0 35 0 -4 -547z m404 -527 c234 -194 359 -291 366 -285
24 19 32 -244 14 -456 -12 -141 -34 -278 -61 -390 -26 -103 -78 -263 -89 -270
-13 -8 -80 90 -80 117 0 14 -16 58 -36 97 -40 79 -175 230 -247 277 -40 25
-117 112 -117 131 0 4 25 23 55 41 30 18 79 56 110 84 31 28 57 49 59 47 4 -6
317 -352 332 -369 9 -9 17 -11 24 -4 6 6 -47 73 -160 197 -94 104 -170 190
-170 192 0 2 24 20 53 38 87 57 110 88 115 155 4 50 -1 70 -28 131 -17 40 -34
88 -37 107 -4 25 -10 34 -22 32 -12 -3 -17 -21 -22 -84 -7 -89 -24 -126 -67
-142 -24 -9 -100 -34 -111 -36 -3 -1 -4 24 -2 55 5 107 -36 182 -115 215 -31
13 -32 14 -19 50 7 20 10 45 7 56 -7 28 -46 50 -84 46 l-33 -3 -3 133 c-1 72
1 132 5 132 4 -1 168 -133 363 -294z m-277 -17 c8 -12 5 -28 -12 -59 -12 -23
-21 -43 -19 -44 138 -60 158 -89 158 -231 0 -52 2 -95 4 -95 2 0 23 11 47 24
24 13 63 29 86 35 48 13 78 46 93 102 6 22 13 39 16 39 3 0 13 -19 24 -42 17
-41 23 -76 21 -125 -1 -32 -54 -87 -123 -129 -33 -20 -90 -63 -126 -95 -96
-85 -173 -121 -255 -120 -77 0 -173 30 -235 72 -79 53 -102 61 -179 62 -99 0
-175 -37 -211 -103 -45 -85 -11 -214 68 -255 82 -43 216 -38 348 11 89 34 257
74 310 74 24 0 61 -9 84 -21 40 -21 158 -124 158 -139 0 -4 -28 -10 -62 -13
-56 -5 -67 -3 -100 19 -26 18 -50 26 -81 26 -50 0 -76 -12 -198 -88 -124 -79
-184 -98 -299 -99 -79 0 -102 4 -135 22 -102 54 -144 144 -165 351 -12 114 -3
180 37 262 34 70 149 185 225 225 52 27 60 28 91 17 18 -6 57 -12 86 -12 48 0
51 -2 42 -19 -8 -13 -27 -21 -68 -26 -72 -9 -108 -29 -129 -73 -13 -27 -14
-40 -5 -59 16 -34 36 -38 97 -19 44 14 75 16 177 10 143 -8 157 -3 188 59 12
23 33 54 47 69 22 24 24 33 19 73 -8 58 -33 106 -93 178 -55 67 -62 108 -24
139 28 22 78 21 93 -3z m-69 -185 c3 -8 2 -12 -4 -9 -6 3 -10 10 -10 16 0 14
7 11 14 -7z m30 -86 c41 -48 45 -77 15 -104 -12 -10 -30 -36 -40 -56 -11 -21
-22 -38 -24 -38 -3 0 -5 54 -5 120 0 67 4 120 9 120 5 0 26 -19 45 -42z m-294
-167 c0 -32 -4 -40 -22 -45 -43 -11 -48 -7 -48 32 0 46 5 52 42 52 26 0 28 -3
28 -39z m-100 -26 c0 -39 -3 -45 -20 -45 -27 0 -35 22 -19 52 10 19 27 37 37
38 1 0 2 -20 2 -45z m-375 -157 c3 -7 1 -26 -3 -43 l-8 -30 -158 -3 c-119 -2
-156 -6 -153 -15 2 -8 49 -13 158 -17 l154 -5 3 -37 c3 -37 3 -38 -32 -38 -25
0 -36 -4 -36 -15 0 -10 10 -15 34 -15 36 0 46 -12 46 -56 l0 -24 -180 0 c-153
0 -180 -2 -180 -15 0 -13 27 -15 184 -15 l184 0 6 -24 c3 -13 9 -31 12 -40 6
-14 -32 -16 -387 -16 -254 0 -408 -4 -433 -11 -26 -7 -58 -29 -92 -65 -29 -30
-56 -54 -59 -54 -3 0 -5 10 -5 23 0 28 83 133 129 164 32 22 43 23 222 23 161
0 189 2 189 15 0 13 -27 15 -182 15 -212 0 -238 -7 -305 -84 -22 -25 -43 -46
-47 -46 -21 0 1 55 42 105 70 88 101 105 183 105 55 0 69 3 69 15 0 12 -14 15
-66 15 -82 0 -119 -17 -179 -81 -25 -27 -48 -49 -50 -49 -3 0 -5 11 -5 24 0
27 57 104 114 154 l37 32 179 0 c153 0 180 2 180 15 0 13 -26 15 -175 15 -200
0 -206 -1 -277 -78 -26 -27 -49 -47 -52 -44 -14 14 -3 43 39 99 47 63 79 90
124 103 14 5 194 9 399 9 290 1 374 -2 377 -11z m353 -14 c22 -6 22 -9 22
-165 l0 -159 -25 -6 c-53 -13 -55 -8 -55 164 0 87 3 162 7 165 8 8 21 9 51 1z
m-80 -163 c1 -85 -1 -158 -5 -161 -13 -12 -73 9 -73 25 0 9 -10 15 -25 15 -17
0 -29 9 -40 30 -22 43 -19 50 25 50 29 0 40 4 40 15 0 11 -12 15 -45 15 -41 0
-45 2 -45 24 0 45 10 56 51 56 28 0 39 4 39 15 0 9 -9 15 -25 15 -37 0 -30 15
18 39 80 40 82 38 85 -138z m185 116 c14 -12 17 -32 17 -135 0 -127 -2 -132
-51 -132 -18 0 -19 9 -19 150 0 164 -2 159 53 117z m91 -52 l36 -15 0 -74 c0
-74 0 -74 -31 -85 -18 -6 -36 -11 -40 -11 -5 0 -9 45 -9 100 0 55 2 100 4 100
2 0 20 -7 40 -15z m124 -35 c8 0 12 -17 12 -49 0 -53 -1 -55 -42 -65 l-28 -6
0 66 c0 64 1 66 23 60 12 -3 28 -6 35 -6z m155 -37 c15 -20 25 -38 24 -39 -1
-1 -32 -5 -69 -9 l-68 -7 0 40 c0 48 4 52 50 52 31 0 41 -6 63 -37z m54 -248
c49 -29 58 -52 50 -130 -9 -84 -66 -195 -101 -195 -6 0 -35 41 -63 91 -49 84
-53 95 -53 155 l0 65 43 19 c55 26 72 25 124 -5z m-814 -44 c14 -21 23 -42 20
-45 -4 -3 -98 -6 -210 -6 -129 0 -203 -4 -203 -10 0 -6 81 -10 224 -10 221 0
226 0 272 -25 26 -14 57 -25 70 -25 28 0 37 -25 32 -91 -3 -44 -3 -44 -38 -41
-62 7 -205 52 -220 71 -10 12 -35 20 -70 24 -30 3 -91 12 -135 21 -45 9 -134
15 -205 15 -103 1 -133 -3 -169 -19 -24 -11 -54 -20 -67 -20 -27 0 -30 -8 -10
-24 23 -17 7 -80 -22 -84 -31 -5 -28 -32 3 -32 23 0 25 -4 25 -40 0 -29 -4
-40 -15 -40 -8 0 -15 -7 -15 -15 0 -8 9 -15 19 -15 12 0 21 -9 25 -24 3 -13 9
-31 12 -40 5 -14 -5 -16 -77 -16 -103 0 -149 -19 -206 -84 -22 -25 -43 -46
-47 -46 -21 0 1 55 42 105 60 75 104 105 153 105 28 0 39 4 39 15 0 21 -62 20
-106 -1 -19 -9 -54 -38 -78 -65 -24 -27 -47 -49 -50 -49 -19 0 -1 55 32 97 59
74 108 113 142 113 20 0 30 5 30 15 0 19 -42 20 -78 1 -15 -8 -49 -37 -74 -64
-26 -27 -49 -47 -52 -44 -15 14 -3 44 38 97 59 75 99 103 158 111 61 8 62 24
1 24 -56 0 -118 -33 -157 -85 -15 -19 -31 -35 -37 -35 -43 0 61 150 131 187
40 21 55 23 207 23 102 0 163 4 163 10 0 11 -31 12 -230 10 -153 -2 -172 -8
-234 -83 -19 -23 -38 -39 -42 -35 -13 14 6 54 53 112 82 101 56 96 524 96
l406 0 26 -39z m1066 -16 c49 -68 71 -124 71 -183 0 -44 -9 -70 -56 -165 -154
-305 -261 -378 -558 -378 -253 0 -822 112 -1028 202 -36 16 -77 29 -90 29 -34
0 -43 10 -61 64 -22 65 -23 223 -2 253 25 36 79 47 208 45 148 -2 207 -12 377
-67 224 -72 344 -91 645 -101 178 -6 180 -6 215 17 23 16 47 48 69 92 29 58
35 80 37 145 l2 77 48 6 c90 11 89 11 123 -36z m-449 -125 l0 -150 -35 0 -35
0 0 128 0 127 33 22 c17 12 33 22 35 22 1 1 2 -66 2 -149z m-2790 51 c24 -13
96 -74 160 -135 63 -62 141 -126 172 -144 141 -81 168 -108 302 -310 141 -212
200 -276 314 -335 40 -21 116 -50 170 -64 84 -22 120 -25 272 -26 215 -2 243
7 311 99 51 70 64 81 106 90 49 10 96 -18 129 -79 26 -47 29 -61 29 -142 0
-79 -4 -97 -29 -150 -66 -136 -211 -239 -401 -287 -121 -30 -413 -33 -545 -5
-238 51 -418 153 -556 315 -89 104 -208 295 -264 422 -74 168 -137 244 -260
309 -122 65 -250 96 -469 112 -74 5 -136 11 -138 13 -3 2 0 52 6 111 14 155
29 167 271 210 184 32 354 30 420 -4z m2690 -80 c0 -64 -4 -112 -10 -116 -6
-4 -24 -4 -40 0 l-30 7 0 92 0 92 33 17 c17 8 35 16 40 16 4 1 7 -48 7 -108z
m-110 -27 l0 -85 -32 3 -33 3 -3 77 c-2 66 0 77 15 81 52 14 53 13 53 -79z
m-100 -4 c0 -67 -1 -70 -24 -70 -50 0 -56 8 -56 76 l0 64 40 0 40 0 0 -70z
m383 -29 c15 -27 27 -51 27 -55 0 -3 -16 -6 -35 -6 l-35 0 0 55 c0 30 4 55 8
55 5 0 21 -22 35 -49z m537 -103 c0 -9 -40 -96 -89 -195 -208 -418 -382 -668
-511 -733 -33 -17 -111 -78 -191 -151 -145 -132 -201 -174 -222 -166 -7 3 -19
29 -25 58 -15 63 -36 89 -71 89 -25 0 -27 5 -94 253 -37 138 -68 255 -68 260
1 4 118 7 260 7 l259 0 63 -157 c34 -87 64 -160 66 -162 2 -3 8 0 13 5 7 7
-10 60 -49 156 -32 81 -56 149 -53 152 3 3 34 6 68 6 l63 0 3 72 3 71 61 13
c66 13 129 41 182 81 32 24 34 24 47 7 8 -11 19 -31 26 -46 6 -16 18 -28 25
-28 19 0 18 7 -12 65 l-27 51 46 63 c26 35 74 119 108 188 l61 125 29 -34 c15
-18 28 -40 29 -50z m-2384 -108 c46 -37 124 -144 124 -168 0 -12 -2 -22 -4
-22 -2 0 -33 28 -68 63 -43 44 -74 66 -97 70 -18 4 -122 7 -230 7 l-196 1 -45
40 -45 40 265 -3 266 -3 30 -25z m-1715 -20 c-2 -8 -6 -49 -9 -91 -3 -58 -1
-78 9 -85 8 -5 50 -11 94 -14 l80 -5 0 -89 0 -89 -90 2 c-164 4 -225 51 -225
172 0 75 25 137 73 187 32 34 76 41 68 12z m142 14 l37 -7 0 -83 0 -84 -79 0
c-70 0 -80 2 -86 20 -7 21 0 75 17 128 10 35 29 39 111 26z m125 -14 c9 0 12
-46 12 -195 l0 -195 282 -2 c214 -2 282 -6 286 -15 3 -10 -65 -13 -317 -13
l-321 0 0 216 0 216 23 -6 c12 -3 28 -6 35 -6z m106 -16 c14 -5 16 -29 16
-160 l0 -154 214 0 c181 0 215 -2 220 -15 5 -13 -28 -15 -254 -15 l-260 0 0
175 0 175 24 0 c13 0 31 -3 40 -6z m90 -24 c26 -9 26 -11 26 -120 l0 -110 149
0 c123 0 150 -3 155 -15 5 -13 -20 -15 -184 -15 l-190 0 0 135 c0 77 4 135 9
135 5 0 21 -4 35 -10z m104 -40 c30 -18 32 -23 32 -75 l0 -55 74 0 c56 0 75
-4 80 -15 5 -13 -12 -15 -114 -15 l-120 0 0 90 c0 50 3 90 8 90 4 0 22 -9 40
-20z m1120 6 c53 -28 158 -156 148 -181 -8 -23 -40 -18 -67 11 -52 56 -83 64
-263 64 l-164 0 -20 33 c-11 19 -27 46 -37 60 l-17 27 196 0 c151 0 203 -3
224 -14z m428 -37 c-25 -28 -46 -55 -46 -60 0 -5 -9 -9 -20 -9 -29 0 -79 -27
-116 -62 -35 -33 -67 -34 -72 -3 -3 24 79 130 127 162 27 18 48 23 103 23 l70
0 -46 -51z m240 6 c24 -13 48 -25 55 -27 7 -2 7 -17 -1 -50 -15 -59 -1 -127
41 -193 16 -25 29 -47 29 -50 0 -2 -16 -13 -35 -25 -33 -21 -36 -21 -97 -6
-92 23 -203 81 -234 121 -54 72 -38 153 46 229 41 37 44 38 97 31 30 -4 75
-17 99 -30z m-1686 -37 c40 -29 38 -40 -7 -36 -33 3 -38 7 -41 31 -4 33 9 34
48 5z m1855 -23 c30 -13 29 -13 -27 -14 -54 -1 -68 6 -51 22 10 11 45 7 78 -8z
m-807 -74 c66 -49 69 -70 3 -28 -32 20 -53 23 -190 27 -111 4 -156 9 -159 18
-3 9 32 12 151 12 l154 0 41 -29z m332 16 c0 -10 -49 -38 -114 -66 -20 -8 9
22 46 50 44 31 68 37 68 16z m740 -5 c19 -8 -18 -11 -167 -11 -171 -1 -193 1
-193 15 0 14 19 16 168 12 92 -3 178 -10 192 -16z m-1094 -58 c34 -16 50 -43
17 -28 -10 4 -81 10 -157 13 -98 4 -141 10 -144 19 -6 20 240 17 284 -4z m361
-1 c2 -6 -9 -14 -24 -17 -15 -4 -36 -9 -45 -12 -31 -9 -20 13 15 30 34 17 49
16 54 -1z m1063 -1 c26 -7 -61 -10 -322 -11 -320 -1 -358 1 -358 15 0 14 33
15 323 11 177 -2 338 -9 357 -15z m-1190 -40 c15 -16 33 -46 39 -68 10 -34 9
-41 -9 -55 -25 -21 -98 -32 -155 -23 -25 3 -55 14 -65 23 -18 14 -19 21 -9 55
6 22 24 52 39 68 24 23 37 28 80 28 43 0 56 -5 80 -28z m1458 -10 l3 -22 -462
2 c-359 2 -463 6 -467 16 -3 9 86 12 422 12 294 0 426 3 426 11 0 6 16 9 38 7
30 -2 38 -7 40 -26z m102 -27 l0 -55 -487 2 c-378 2 -487 6 -491 16 -3 9 92
12 452 12 l456 0 0 40 c0 39 1 40 35 40 l35 0 0 -55z m-1802 29 c12 -4 22 -11
22 -18 0 -8 -34 -10 -117 -8 -127 3 -143 6 -143 22 0 11 198 14 238 4z m397
-5 c9 -14 7 -15 -47 -22 -38 -5 -48 -4 -48 7 0 23 83 36 95 15z m-387 -67 c3
-10 -18 -12 -94 -10 -68 2 -99 7 -102 16 -3 10 18 12 94 10 68 -2 99 -7 102
-16z m452 3 c11 -13 2 -15 -69 -15 -74 0 -92 6 -74 23 14 14 130 7 143 -8z
m-1569 -113 c7 -73 27 -100 80 -111 28 -5 38 -15 59 -57 14 -28 33 -63 43 -78
l18 -27 26 21 c14 11 34 20 44 20 26 0 53 -44 45 -75 -8 -33 -30 -41 -62 -25
-31 17 -196 150 -251 203 -24 22 -44 39 -46 36 -2 -2 -17 -31 -33 -65 -28 -59
-29 -62 -12 -90 9 -16 20 -48 24 -71 l6 -42 -120 118 c-128 127 -136 140 -147
249 l-6 63 163 -3 163 -3 6 -63z m205 41 c-4 -16 -16 -59 -27 -96 l-20 -68
-26 21 c-14 11 -36 20 -49 20 -34 0 -54 36 -54 97 l0 53 91 0 91 0 -6 -27z
m105 -15 c12 -24 59 -100 104 -169 l83 -125 -19 -90 c-10 -49 -18 -99 -19
-112 0 -36 23 -21 31 19 4 19 12 60 19 92 l12 58 68 -65 c83 -78 170 -138 257
-178 56 -25 64 -32 60 -51 -3 -12 -11 -73 -18 -134 -11 -99 -15 -113 -31 -113
-10 0 -87 15 -171 34 -83 19 -170 37 -192 41 -66 10 -69 14 -40 78 32 69 37
134 11 152 -10 8 -36 17 -57 20 -26 5 -57 22 -92 52 -106 91 -131 86 -182 -39
-21 -51 -42 -97 -46 -101 -17 -20 -164 75 -289 188 -47 42 -92 81 -102 86 -16
9 -16 13 4 69 12 33 25 60 28 60 3 0 40 -32 82 -70 77 -71 118 -134 118 -182
0 -26 22 -53 33 -41 15 14 6 169 -12 222 -17 49 -18 57 -4 90 8 20 17 38 18
40 2 1 37 -25 77 -59 40 -35 74 -63 75 -64 1 -1 -16 -62 -37 -136 -44 -150
-46 -160 -27 -160 8 0 25 47 46 124 19 69 37 130 41 136 5 7 28 -3 68 -31 47
-32 66 -40 86 -35 81 20 53 178 -29 161 -62 -12 -69 -11 -79 17 -7 20 -2 52
24 142 30 105 35 116 56 116 18 0 29 -11 45 -42z m824 22 c13 -12 46 -24 78
-30 72 -11 163 2 192 30 32 30 208 29 322 -2 46 -13 83 -27 83 -32 0 -21 -55
-79 -89 -94 -24 -10 -80 -17 -171 -20 -157 -5 -281 13 -393 56 -72 28 -177 90
-177 104 0 5 30 8 67 8 53 0 71 -4 88 -20z m1082 4 c3 -8 36 -125 73 -259 l67
-244 -51 -15 c-28 -8 -89 -24 -135 -36 -47 -12 -97 -28 -112 -36 -29 -14 -54
-48 -45 -62 2 -4 6 -43 7 -87 l4 -80 -135 -5 c-128 -6 -139 -8 -225 -44 -192
-82 -184 -80 -370 -81 -122 0 -199 5 -275 19 -58 10 -108 21 -112 25 -9 9 27
266 38 265 5 -1 47 -11 94 -23 74 -18 230 -41 283 -41 15 0 17 -12 17 -110 0
-94 2 -110 16 -110 13 0 15 15 13 107 l-3 108 127 12 c70 7 160 21 200 33 131
38 117 45 117 -54 0 -70 3 -86 15 -86 12 0 15 18 15 98 l0 97 51 30 c117 69
217 219 227 341 5 68 -25 191 -53 214 -8 7 -15 19 -15 26 0 22 158 20 167 -2z
m-1967 -501 c14 -9 42 -31 62 -50 21 -18 58 -38 83 -44 59 -15 72 -31 51 -63
-11 -18 -29 -27 -63 -32 -53 -8 -93 -41 -93 -76 0 -13 -9 -29 -20 -36 -24 -15
-26 -49 -5 -99 8 -19 15 -39 15 -43 0 -3 -30 -56 -66 -116 -37 -60 -78 -133
-91 -162 -16 -37 -28 -52 -38 -49 -7 3 -30 9 -50 13 -28 5 -35 10 -30 23 4 9
22 73 39 142 18 70 41 138 52 152 10 14 35 44 55 68 51 61 58 91 43 164 -14
63 -18 182 -8 209 8 21 33 20 64 -1z m2180 -43 c11 -11 20 -24 20 -30 0 -11
-40 -50 -51 -50 -4 0 -28 -25 -53 -55 -55 -67 -53 -76 34 -185 33 -41 71 -96
85 -121 26 -49 70 -239 57 -250 -4 -4 -24 -12 -45 -17 -35 -10 -39 -9 -54 16
-10 15 -40 52 -68 82 -57 64 -75 114 -75 218 -1 79 -13 139 -33 160 -9 8 -33
14 -58 14 -46 -1 -95 31 -130 85 -24 36 -24 39 4 58 19 12 305 92 340 94 4 1
16 -8 27 -19z m-2271 -143 c1 -25 -1 -26 -19 -15 -23 15 -24 26 -9 65 l12 28
7 -25 c5 -14 8 -37 9 -53z m2305 47 c9 -23 0 -31 -39 -36 -42 -5 -43 -1 -7 29
33 27 38 28 46 7z m-2034 -84 c0 -6 -7 -24 -15 -40 -13 -25 -22 -30 -51 -30
-38 0 -54 21 -37 49 16 25 103 43 103 21z m1680 -47 c0 -9 -34 -32 -47 -33 -9
0 -13 15 -13 41 l0 40 30 -21 c17 -12 30 -24 30 -27z m114 -28 c18 -18 23 -49
30 -160 6 -112 19 -146 80 -212 29 -32 58 -68 64 -80 18 -32 14 -92 -8 -140
-32 -72 -103 -104 -356 -158 -93 -20 -236 -55 -319 -78 l-150 -41 -215 -1
c-203 0 -221 2 -315 27 -145 39 -205 47 -447 58 -264 12 -326 27 -393 95 -48
47 -65 92 -65 170 0 56 29 119 124 269 60 96 63 107 41 146 -21 36 -19 77 3
84 21 7 214 -28 462 -84 285 -64 351 -73 520 -74 171 -1 224 8 330 56 138 63
167 70 288 69 92 -1 122 3 165 20 141 56 139 56 161 34z"/>
<path d="M4020 7003 c-34 -4 -36 -7 -75 -99 l-40 -96 -25 30 c-14 17 -41 55
-60 86 -21 33 -40 53 -48 51 -8 -3 -32 -5 -55 -5 -39 0 -40 -1 -21 -14 11 -8
55 -64 98 -125 l77 -110 2 -76 c2 -70 3 -75 22 -71 11 3 35 6 53 6 28 0 31 3
24 18 -5 9 -12 44 -15 77 -6 55 -3 67 45 180 28 66 58 128 66 138 13 14 13 17
1 15 -8 -1 -30 -3 -49 -5z"/>
<path d="M3377 6891 c-92 -26 -170 -50 -173 -54 -3 -3 0 -23 7 -45 9 -33 15
-39 28 -32 9 5 40 16 69 24 40 12 54 12 57 3 23 -74 75 -271 75 -287 0 -23 -2
-23 41 -9 19 6 40 13 48 15 9 3 10 8 3 17 -15 18 -85 276 -79 291 5 13 102 43
121 38 8 -3 -1 64 -10 80 -7 11 2 13 -187 -41z"/>
<path d="M4815 6894 c-72 -37 -114 -106 -115 -187 0 -58 26 -113 74 -155 151
-132 388 28 325 219 -17 51 -55 97 -99 119 -48 25 -142 27 -185 4z m145 -79
c43 -22 60 -53 60 -108 0 -42 -5 -54 -34 -83 -29 -29 -41 -34 -80 -34 -38 0
-52 6 -82 33 -48 43 -56 97 -22 147 40 58 99 75 158 45z"/>
<path d="M4320 6833 c-50 -64 29 -143 93 -93 51 40 23 120 -42 120 -20 0 -36
-9 -51 -27z"/>
<path d="M3010 6762 l-36 -15 78 -181 c43 -100 79 -185 81 -191 2 -5 21 -2 44
9 l40 18 -22 46 c-12 26 -48 111 -81 189 -32 78 -61 142 -64 142 -3 -1 -21 -8
-40 -17z"/>
<path d="M5339 6763 c0 -10 -37 -94 -83 -187 l-82 -169 40 -17 40 -17 30 64
c16 35 33 63 38 63 5 0 40 -16 79 -36 39 -19 77 -33 84 -30 7 2 17 19 24 36
l11 32 -80 36 c-44 21 -80 43 -80 50 0 19 29 72 40 72 7 0 159 -69 191 -87 3
-2 13 15 22 37 l16 41 -125 59 c-157 74 -164 76 -165 53z"/>
<path d="M2709 6610 c-111 -57 -157 -133 -124 -203 30 -65 109 -77 205 -33 63
30 98 33 107 10 12 -31 -118 -127 -141 -104 -19 19 -56 11 -67 -14 -22 -48 30
-93 88 -77 116 33 203 115 203 191 0 92 -99 127 -212 75 -56 -26 -93 -32 -103
-15 -13 20 7 49 54 79 39 26 57 31 97 29 48 -3 49 -2 52 28 7 68 -64 83 -159
34z"/>
<path d="M5793 6350 c-69 -28 -44 -130 32 -130 39 0 65 29 65 71 0 44 -53 76
-97 59z"/>
<path d="M2309 6332 c-33 -17 -199 -150 -199 -160 0 -3 56 -72 125 -154 69
-81 125 -153 125 -159 0 -5 18 4 39 22 l40 31 -34 37 c-18 20 -43 48 -54 62
-19 25 -19 27 -3 41 32 28 40 28 141 13 109 -16 127 -14 137 18 10 31 -25 53
-96 61 -58 7 -62 9 -55 29 4 12 10 45 12 72 4 45 1 54 -23 78 -21 22 -36 27
-73 27 -26 0 -62 -8 -82 -18z m101 -84 c0 -24 -110 -138 -132 -138 -7 0 -22
13 -32 27 l-20 27 40 34 c83 73 144 94 144 50z"/>
<path d="M6119 6137 c-24 -13 -57 -43 -74 -66 -27 -38 -30 -51 -30 -116 0 -65
3 -78 30 -116 41 -58 94 -84 172 -84 34 0 65 3 69 8 15 15 -47 65 -88 71 -105
17 -143 152 -61 216 77 60 187 12 195 -85 2 -26 63 -94 74 -82 4 3 9 27 11 52
18 157 -157 276 -298 202z"/>
<path d="M1868 5912 c-57 -68 -92 -119 -85 -121 17 -6 295 -240 299 -252 2 -6
50 45 106 112 l103 122 -28 22 c-15 13 -32 22 -38 22 -5 -1 -39 -36 -74 -79
-35 -43 -66 -78 -70 -78 -4 0 -18 11 -30 24 -24 26 -20 48 14 76 9 7 25 26 35
41 l20 27 -33 25 -33 25 -45 -54 c-24 -30 -49 -54 -55 -54 -6 0 -21 11 -33 24
l-22 23 63 76 c35 42 70 76 78 77 17 1 -48 60 -65 59 -5 0 -54 -53 -107 -117z"/>
<path d="M6470 5679 c-107 -32 -201 -56 -207 -54 -19 6 -16 -5 13 -46 24 -36
26 -36 53 -23 15 8 41 16 57 19 27 6 33 1 78 -65 l48 -71 -23 -27 c-13 -15
-31 -34 -40 -43 -16 -15 -16 -19 12 -60 16 -24 29 -38 29 -31 0 14 210 296
241 323 17 15 16 19 -18 70 -20 30 -38 57 -42 60 -3 3 -94 -21 -201 -52z m156
-76 c-63 -90 -63 -90 -80 -68 -24 33 -40 65 -34 70 8 8 132 43 137 39 2 -2 -8
-21 -23 -41z"/>
<path d="M1656 5636 c-9 -14 -16 -31 -16 -38 0 -7 43 -74 95 -147 52 -74 95
-139 95 -144 0 -6 -26 -7 -62 -4 -35 4 -113 9 -175 13 l-112 7 -20 -34 c-11
-18 -19 -34 -18 -35 2 -2 415 -34 440 -34 7 0 23 17 34 38 l21 37 -122 173
c-68 95 -127 177 -133 183 -7 7 -15 2 -27 -15z"/>
<path d="M6905 5321 c-14 -13 -336 -151 -353 -151 -7 0 -12 -4 -10 -9 34 -87
134 -311 139 -311 4 0 22 7 41 15 l35 14 -27 58 c-52 112 -74 173 -64 182 5 4
71 34 147 66 75 32 137 63 137 69 -1 25 -36 76 -45 67z"/>
<path d="M1386 5106 c-10 -26 -17 -48 -15 -50 2 -1 88 -36 191 -78 l187 -75
16 40 c9 22 15 40 13 42 -2 1 -85 34 -185 74 -100 40 -184 78 -185 83 -2 6
-12 -10 -22 -36z"/>
<path d="M7080 4859 c-27 -16 -362 -109 -371 -103 -12 7 -12 5 7 -49 13 -38
19 -45 32 -38 21 11 343 104 360 104 15 0 14 22 -1 63 -9 24 -16 29 -27 23z"/>
<path d="M1285 4824 c-3 -20 -4 -38 -1 -41 3 -3 58 -19 123 -34 65 -16 125
-32 133 -35 9 -4 -50 -32 -142 -68 -87 -34 -161 -66 -166 -71 -16 -18 -31 -94
-18 -89 13 5 336 -69 373 -85 20 -9 22 -6 28 31 4 22 3 43 -1 48 -5 4 -64 20
-131 35 -68 16 -123 32 -123 36 0 4 72 36 159 70 157 61 159 63 166 96 3 19 9
41 12 49 3 9 0 12 -9 9 -7 -3 -97 15 -198 40 -102 24 -188 45 -191 45 -4 0
-10 -16 -14 -36z"/>
<path d="M7169 4575 c-10 -10 -381 -65 -392 -58 -6 4 -8 -6 -4 -27 4 -18 7
-40 7 -50 0 -15 5 -16 68 -4 37 7 70 10 74 6 4 -4 13 -45 20 -92 l13 -85 40 3
c22 2 41 5 42 6 1 1 -4 42 -12 91 -8 49 -13 91 -10 93 2 2 24 7 48 9 l44 5 16
-102 c9 -57 14 -106 12 -110 -2 -3 15 -4 38 0 l42 5 -3 50 c-4 76 -36 268 -43
260z"/>
<path d="M1180 4280 c0 -14 -3 -34 -6 -45 -5 -20 0 -21 98 -23 57 -1 116 -5
133 -9 92 -18 124 -113 59 -174 -25 -23 -32 -24 -165 -23 l-139 1 0 -46 0 -46
141 2 c159 2 191 12 243 77 28 34 31 45 31 105 0 56 -4 74 -27 108 -39 59 -81
75 -235 88 l-133 11 0 -26z"/>
<path d="M6966 4108 c-76 -21 -146 -116 -146 -199 0 -69 49 -148 112 -180 43
-22 125 -27 169 -11 39 15 88 61 109 103 48 93 5 224 -90 274 -37 19 -109 25
-154 13z m142 -112 c34 -31 37 -39 37 -86 0 -47 -3 -55 -37 -86 -42 -38 -88
-45 -138 -19 -43 22 -60 53 -60 108 0 42 5 54 34 83 29 29 41 34 80 34 39 0
52 -6 84 -34z"/>
<path d="M1350 3650 c-41 -41 -12 -120 44 -120 38 0 69 32 69 70 0 61 -71 92
-113 50z"/>
<path d="M6790 3542 c-12 -44 -13 -65 -2 -58 9 5 134 -22 144 -32 4 -4 4 -20
0 -35 -6 -22 -28 -39 -102 -81 -76 -42 -96 -58 -98 -78 -2 -14 4 -31 13 -38
14 -12 26 -9 83 20 37 19 70 36 75 38 4 2 7 -6 7 -18 0 -56 56 -120 105 -120
32 0 80 30 104 65 25 37 86 265 73 276 -4 3 -83 22 -177 43 -93 20 -180 41
-192 46 -20 8 -23 5 -33 -28z m306 -125 c6 -6 -26 -127 -41 -157 -22 -42 -52
-40 -60 3 -4 19 -2 51 3 73 6 21 13 52 16 68 7 26 10 28 43 23 19 -4 37 -8 39
-10z"/>
<path d="M1596 3278 c-15 -6 -24 -13 -19 -17 15 -9 74 -194 65 -203 -4 -4 -21
-10 -38 -14 -29 -6 -30 -5 -53 66 -17 55 -26 70 -38 66 -8 -3 -26 -9 -39 -12
-13 -3 -24 -9 -24 -12 0 -3 10 -36 22 -74 12 -37 19 -70 16 -74 -4 -3 -21 -7
-39 -7 -31 -2 -32 -1 -60 83 -16 46 -29 92 -29 101 0 17 -3 17 -45 2 -25 -8
-45 -16 -45 -17 0 -2 88 -265 95 -285 4 -9 9 -10 18 -3 20 17 359 122 370 115
6 -4 8 0 4 10 -3 9 -25 78 -48 152 -46 147 -47 147 -113 123z"/>
<path d="M6647 3017 c-9 -22 -16 -42 -14 -44 2 -1 55 -27 118 -55 63 -29 116
-57 119 -63 3 -5 -67 -22 -161 -39 l-167 -29 -21 -44 c-11 -23 -16 -43 -10
-43 12 0 339 -148 355 -161 7 -6 17 4 29 31 10 22 16 42 14 44 -2 2 -56 27
-119 56 -63 28 -119 55 -123 59 -5 5 56 20 135 35 79 15 155 29 171 32 19 4
33 17 47 44 24 47 24 50 6 50 -15 0 -307 132 -341 154 -19 12 -22 10 -38 -27z"/>
<path d="M1808 2851 c-4 -11 -324 -191 -339 -191 -6 0 -9 -3 -7 -7 2 -5 12
-24 22 -44 l18 -36 65 39 c36 22 70 37 76 35 17 -7 99 -157 94 -171 -7 -17
-123 -77 -132 -68 -4 4 5 -17 19 -46 23 -45 29 -51 39 -39 15 19 315 187 333
187 11 0 9 10 -7 43 -26 52 -28 54 -37 41 -4 -5 -34 -25 -66 -43 l-59 -33 -16
21 c-9 12 -33 52 -54 90 l-37 69 67 38 c38 20 69 38 71 40 4 3 -37 84 -42 84
-3 0 -6 -4 -8 -9z"/>
<path d="M6396 2540 l-25 -37 22 -10 c51 -24 317 -204 317 -216 0 -6 13 8 30
32 l29 45 -27 16 c-15 9 -93 60 -174 113 l-146 95 -26 -38z"/>
<path d="M6281 2367 c-20 -22 -30 -41 -25 -45 17 -12 54 -69 54 -84 0 -7 -25
-41 -56 -75 l-55 -63 -51 26 -51 26 -36 -36 c-27 -27 -31 -36 -18 -36 16 0
289 -111 362 -147 30 -14 30 -14 76 38 l46 52 -95 161 c-52 88 -100 175 -106
191 l-11 30 -34 -38z m118 -284 c22 -37 39 -69 37 -70 -2 -2 -19 4 -39 12 -21
8 -53 22 -73 30 l-35 15 32 40 c18 22 34 40 35 40 2 0 21 -30 43 -67z"/>
<path d="M2149 2323 c-5 -13 -231 -203 -241 -203 -4 0 -27 24 -51 54 l-43 53
-33 -26 -33 -27 116 -139 c64 -77 120 -141 125 -143 5 -2 22 8 38 22 l30 25
-43 48 c-24 26 -44 53 -44 59 0 11 194 178 231 199 16 9 14 14 -16 49 -18 21
-34 34 -36 29z"/>
<path d="M2436 1779 c-50 -39 -22 -119 43 -119 75 0 95 104 25 130 -34 13 -38
13 -68 -11z"/>
<path d="M5893 1790 c-67 -27 -45 -130 28 -130 65 0 93 80 43 119 -29 23 -38
24 -71 11z"/>
<path d="M4675 6100 c-3 -6 0 -12 7 -14 7 -2 141 -14 298 -26 157 -11 295 -23
308 -26 15 -3 22 0 22 10 0 18 -15 20 -336 46 -291 23 -291 23 -299 10z"/>
<path d="M3050 5415 c0 -11 12 -15 50 -15 38 0 50 4 50 15 0 11 -12 15 -50 15
-38 0 -50 -4 -50 -15z"/>
<path d="M3260 5415 c0 -12 14 -15 65 -15 51 0 65 3 65 15 0 12 -14 15 -65 15
-51 0 -65 -3 -65 -15z"/>
<path d="M3440 5415 c0 -12 16 -15 80 -15 64 0 80 3 80 15 0 12 -16 15 -80 15
-64 0 -80 -3 -80 -15z"/>
<path d="M3650 5415 c0 -12 16 -15 80 -15 64 0 80 3 80 15 0 12 -16 15 -80 15
-64 0 -80 -3 -80 -15z"/>
<path d="M3057 5313 c-4 -3 -7 -87 -7 -185 l0 -178 180 0 180 0 0 185 0 185
-173 0 c-96 0 -177 -3 -180 -7z m328 -178 l0 -150 -152 -3 -153 -3 0 156 0
156 153 -3 152 -3 0 -150z"/>
<path d="M3171 5142 c-33 -67 -61 -124 -61 -127 0 -3 6 -5 13 -5 6 0 23 21 37
48 24 45 27 47 72 50 l47 3 28 -55 c18 -35 32 -53 39 -48 8 5 -8 47 -51 132
l-62 125 -62 -123z m79 29 c16 -30 12 -41 -13 -41 -32 0 -38 8 -25 36 14 29
24 30 38 5z"/>
<path d="M3477 5313 c-19 -18 1 -23 93 -23 82 0 100 3 100 15 0 12 -17 15 -93
15 -52 0 -97 -3 -100 -7z"/>
<path d="M3470 5190 c0 -5 23 -10 50 -10 28 0 50 5 50 10 0 6 -22 10 -50 10
-27 0 -50 -4 -50 -10z"/>
<path d="M3610 5190 c0 -6 35 -10 85 -10 50 0 85 4 85 10 0 6 -35 10 -85 10
-50 0 -85 -4 -85 -10z"/>
<path d="M3472 5078 c3 -9 35 -14 101 -16 82 -2 97 0 97 13 0 12 -17 15 -101
15 -76 0 -100 -3 -97 -12z"/>
<path d="M3050 4855 c0 -11 12 -15 50 -15 38 0 50 4 50 15 0 11 -12 15 -50 15
-38 0 -50 -4 -50 -15z"/>
<path d="M3260 4855 c0 -12 14 -15 65 -15 51 0 65 3 65 15 0 12 -14 15 -65 15
-51 0 -65 -3 -65 -15z"/>
<path d="M3430 4855 c0 -12 14 -15 65 -15 51 0 65 3 65 15 0 12 -14 15 -65 15
-51 0 -65 -3 -65 -15z"/>
<path d="M3680 4855 c0 -12 19 -15 115 -15 96 0 115 3 115 15 0 12 -19 15
-115 15 -96 0 -115 -3 -115 -15z"/>
<path d="M3050 4745 c0 -12 15 -15 86 -15 64 0 85 3 82 13 -3 8 -32 13 -86 15
-68 2 -82 0 -82 -13z"/>
<path d="M3260 4745 c0 -13 35 -15 255 -15 220 0 255 2 255 15 0 13 -35 15
-255 15 -220 0 -255 -2 -255 -15z"/>
<path d="M3050 4635 c0 -12 14 -15 65 -15 51 0 65 3 65 15 0 12 -14 15 -65 15
-51 0 -65 -3 -65 -15z"/>
<path d="M3227 4643 c-17 -16 -3 -23 43 -23 38 0 50 4 50 15 0 11 -11 15 -43
15 -24 0 -47 -3 -50 -7z"/>
<path d="M3437 4643 c-19 -18 3 -23 113 -23 100 0 120 3 120 15 0 12 -19 15
-113 15 -63 0 -117 -3 -120 -7z"/>
<path d="M3717 4644 c-18 -19 0 -24 79 -24 64 0 85 3 82 13 -5 13 -148 23
-161 11z"/>
<path d="M3050 4520 c0 -5 14 -10 30 -10 17 0 30 5 30 10 0 6 -13 10 -30 10
-16 0 -30 -4 -30 -10z"/>
<path d="M3150 4520 c0 -5 23 -10 50 -10 28 0 50 5 50 10 0 6 -22 10 -50 10
-27 0 -50 -4 -50 -10z"/>
<path d="M3360 4520 c0 -5 11 -10 25 -10 14 0 25 5 25 10 0 6 -11 10 -25 10
-14 0 -25 -4 -25 -10z"/>
<path d="M3450 4520 c0 -5 23 -10 50 -10 28 0 50 5 50 10 0 6 -22 10 -50 10
-27 0 -50 -4 -50 -10z"/>
<path d="M3660 4520 c0 -5 7 -10 15 -10 8 0 15 5 15 10 0 6 -7 10 -15 10 -8 0
-15 -4 -15 -10z"/>
<path d="M3730 4520 c0 -6 28 -10 65 -10 37 0 65 4 65 10 0 6 -28 10 -65 10
-37 0 -65 -4 -65 -10z"/>
<path d="M3050 4295 c0 -12 18 -15 100 -15 82 0 100 3 100 15 0 12 -18 15
-100 15 -82 0 -100 -3 -100 -15z"/>
<path d="M3360 4295 c0 -13 22 -15 135 -15 113 0 135 2 135 15 0 13 -22 15
-135 15 -113 0 -135 -2 -135 -15z"/>
<path d="M3750 4295 c0 -12 16 -15 80 -15 64 0 80 3 80 15 0 12 -16 15 -80 15
-64 0 -80 -3 -80 -15z"/>
<path d="M3050 4185 c0 -10 10 -15 30 -15 20 0 30 5 30 15 0 10 -10 15 -30 15
-20 0 -30 -5 -30 -15z"/>
<path d="M3220 4185 c0 -12 20 -15 120 -15 100 0 120 3 120 15 0 13 -20 15
-120 15 -100 0 -120 -2 -120 -15z"/>
<path d="M3570 4185 c0 -12 18 -15 100 -15 82 0 100 3 100 15 0 12 -18 15
-100 15 -82 0 -100 -3 -100 -15z"/>
<path d="M3050 3965 c0 -12 15 -15 86 -15 64 0 85 3 82 13 -3 8 -32 13 -86 15
-68 2 -82 0 -82 -13z"/>
<path d="M3260 3965 c0 -13 23 -15 150 -15 127 0 150 2 150 15 0 13 -23 15
-150 15 -127 0 -150 -2 -150 -15z"/>
<path d="M3610 3965 c0 -13 21 -15 136 -15 104 0 135 3 132 13 -3 8 -42 13
-136 15 -113 2 -132 0 -132 -13z"/>
<path d="M3050 3850 c0 -6 68 -10 185 -10 117 0 185 4 185 10 0 6 -68 10 -185
10 -117 0 -185 -4 -185 -10z"/>
<path d="M3050 3735 c0 -13 26 -15 170 -15 144 0 170 2 170 15 0 13 -26 15
-170 15 -144 0 -170 -2 -170 -15z"/>
<path d="M3430 3735 c0 -13 22 -15 135 -15 113 0 135 2 135 15 0 13 -22 15
-135 15 -113 0 -135 -2 -135 -15z"/>
<path d="M3050 3625 c0 -13 14 -15 82 -13 54 2 83 7 86 16 3 9 -18 12 -82 12
-71 0 -86 -3 -86 -15z"/>
<path d="M3330 3625 c0 -13 39 -15 290 -15 251 0 290 2 290 15 0 13 -39 15
-290 15 -251 0 -290 -2 -290 -15z"/>
<path d="M3050 3515 c0 -10 10 -15 30 -15 20 0 30 5 30 15 0 10 -10 15 -30 15
-20 0 -30 -5 -30 -15z"/>
<path d="M3150 3515 c0 -12 16 -15 85 -15 69 0 85 3 85 15 0 12 -16 15 -85 15
-69 0 -85 -3 -85 -15z"/>
<path d="M3360 3515 c0 -11 12 -15 50 -15 38 0 50 4 50 15 0 11 -12 15 -50 15
-38 0 -50 -4 -50 -15z"/>
<path d="M3570 3515 c0 -13 22 -15 135 -15 113 0 135 2 135 15 0 13 -22 15
-135 15 -113 0 -135 -2 -135 -15z"/>
<path d="M3050 3406 c0 -12 12 -16 51 -16 66 0 62 24 -4 28 -37 2 -47 0 -47
-12z"/>
<path d="M3260 3405 c0 -13 22 -15 135 -15 113 0 135 2 135 15 0 13 -22 15
-135 15 -113 0 -135 -2 -135 -15z"/>
<path d="M3640 3405 c0 -12 16 -15 85 -15 69 0 85 3 85 15 0 12 -16 15 -85 15
-69 0 -85 -3 -85 -15z"/>
<path d="M3388 3302 c-87 -5 -69 -22 22 -22 44 0 80 4 80 9 0 12 -35 17 -102
13z"/>
<path d="M3633 3302 c-13 -2 -23 -8 -23 -13 0 -5 51 -9 115 -9 64 0 115 4 115
9 0 9 -163 19 -207 13z"/>
<path d="M3470 3180 c0 -6 33 -10 80 -10 47 0 80 4 80 10 0 6 -33 10 -80 10
-47 0 -80 -4 -80 -10z"/>
<path d="M3680 3180 c0 -6 45 -10 115 -10 70 0 115 4 115 10 0 6 -45 10 -115
10 -70 0 -115 -4 -115 -10z"/>
<path d="M3412 3068 c6 -18 28 -21 28 -4 0 9 -7 16 -16 16 -9 0 -14 -5 -12
-12z"/>
<path d="M3552 3068 c6 -18 28 -21 28 -4 0 9 -7 16 -16 16 -9 0 -14 -5 -12
-12z"/>
<path d="M3622 3068 c6 -18 28 -21 28 -4 0 9 -7 16 -16 16 -9 0 -14 -5 -12
-12z"/>
<path d="M3762 3068 c6 -18 28 -21 28 -4 0 9 -7 16 -16 16 -9 0 -14 -5 -12
-12z"/>
<path d="M3832 3068 c6 -18 28 -21 28 -4 0 9 -7 16 -16 16 -9 0 -14 -5 -12
-12z"/>
<path d="M4620 5415 c0 -12 8 -16 33 -13 17 2 32 8 32 13 0 6 -15 11 -32 13
-25 3 -33 -1 -33 -13z"/>
<path d="M4730 5415 c0 -11 12 -15 45 -15 33 0 45 4 45 15 0 11 -12 15 -45 15
-33 0 -45 -4 -45 -15z"/>
<path d="M4940 5415 c0 -12 19 -15 115 -15 96 0 115 3 115 15 0 12 -19 15
-115 15 -96 0 -115 -3 -115 -15z"/>
<path d="M5220 5415 c0 -12 14 -15 65 -15 51 0 65 3 65 15 0 12 -14 15 -65 15
-51 0 -65 -3 -65 -15z"/>
<path d="M4487 5313 c-20 -20 13 -23 218 -23 193 0 225 2 225 15 0 13 -31 15
-218 15 -120 0 -222 -3 -225 -7z"/>
<path d="M5047 5314 c-20 -20 6 -24 149 -24 120 0 155 3 152 13 -3 9 -45 13
-149 15 -80 1 -148 -1 -152 -4z"/>
<path d="M4590 5190 c0 -5 23 -10 50 -10 28 0 50 5 50 10 0 6 -22 10 -50 10
-27 0 -50 -4 -50 -10z"/>
<path d="M4800 5190 c0 -6 45 -10 115 -10 70 0 115 4 115 10 0 6 -45 10 -115
10 -70 0 -115 -4 -115 -10z"/>
<path d="M5080 5190 c0 -6 28 -10 65 -10 37 0 65 4 65 10 0 6 -28 10 -65 10
-37 0 -65 -4 -65 -10z"/>
<path d="M5250 5190 c0 -5 23 -10 50 -10 28 0 50 5 50 10 0 6 -22 10 -50 10
-27 0 -50 -4 -50 -10z"/>
<path d="M4480 4965 c0 -13 24 -15 155 -15 131 0 155 2 155 15 0 13 -24 15
-155 15 -131 0 -155 -2 -155 -15z"/>
<path d="M4830 4965 c0 -12 16 -15 85 -15 69 0 85 3 85 15 0 12 -16 15 -85 15
-69 0 -85 -3 -85 -15z"/>
<path d="M5040 4965 c0 -13 24 -15 155 -15 131 0 155 2 155 15 0 13 -24 15
-155 15 -131 0 -155 -2 -155 -15z"/>
<path d="M4620 4855 c0 -12 20 -15 120 -15 100 0 120 3 120 15 0 13 -20 15
-120 15 -100 0 -120 -2 -120 -15z"/>
<path d="M4900 4855 c0 -12 20 -15 120 -15 100 0 120 3 120 15 0 13 -20 15
-120 15 -100 0 -120 -2 -120 -15z"/>
<path d="M5250 4855 c0 -11 12 -15 50 -15 38 0 50 4 50 15 0 11 -12 15 -50 15
-38 0 -50 -4 -50 -15z"/>
<path d="M4550 4745 c0 -12 16 -15 85 -15 69 0 85 3 85 15 0 12 -16 15 -85 15
-69 0 -85 -3 -85 -15z"/>
<path d="M4760 4745 c0 -11 12 -15 50 -15 38 0 50 4 50 15 0 11 -12 15 -50 15
-38 0 -50 -4 -50 -15z"/>
<path d="M4970 4745 c0 -12 20 -15 120 -15 100 0 120 3 120 15 0 13 -20 15
-120 15 -100 0 -120 -2 -120 -15z"/>
<path d="M5250 4745 c0 -11 12 -15 50 -15 38 0 50 4 50 15 0 11 -12 15 -50 15
-38 0 -50 -4 -50 -15z"/>
<path d="M4660 4635 c0 -12 18 -15 100 -15 82 0 100 3 100 15 0 12 -18 15
-100 15 -82 0 -100 -3 -100 -15z"/>
<path d="M4907 4643 c-17 -17 -2 -23 58 -23 51 0 65 3 65 15 0 12 -13 15 -58
15 -32 0 -62 -3 -65 -7z"/>
<path d="M5150 4635 c0 -12 17 -15 101 -15 76 0 100 3 97 13 -3 8 -35 13 -101
15 -82 2 -97 0 -97 -13z"/>
<path d="M4480 4520 c0 -6 58 -10 155 -10 97 0 155 4 155 10 0 6 -58 10 -155
10 -97 0 -155 -4 -155 -10z"/>
<path d="M4830 4520 c0 -6 35 -10 85 -10 50 0 85 4 85 10 0 6 -35 10 -85 10
-50 0 -85 -4 -85 -10z"/>
<path d="M5040 4520 c0 -6 58 -10 155 -10 97 0 155 4 155 10 0 6 -58 10 -155
10 -97 0 -155 -4 -155 -10z"/>
<path d="M4520 4404 c0 -12 10 -14 47 -12 66 4 70 28 4 28 -39 0 -51 -4 -51
-16z"/>
<path d="M4730 4405 c0 -8 5 -15 10 -15 6 0 10 7 10 15 0 8 -4 15 -10 15 -5 0
-10 -7 -10 -15z"/>
<path d="M4800 4405 c0 -11 12 -15 45 -15 33 0 45 4 45 15 0 11 -12 15 -45 15
-33 0 -45 -4 -45 -15z"/>
<path d="M5010 4405 c0 -8 5 -15 10 -15 6 0 10 7 10 15 0 8 -4 15 -10 15 -5 0
-10 -7 -10 -15z"/>
<path d="M5080 4405 c0 -11 12 -15 45 -15 33 0 45 4 45 15 0 11 -12 15 -45 15
-33 0 -45 -4 -45 -15z"/>
<path d="M5290 4404 c0 -11 8 -14 27 -12 39 4 42 28 4 28 -21 0 -31 -5 -31
-16z"/>
<path d="M4520 4295 c0 -13 13 -15 83 -13 46 2 82 7 82 13 0 6 -36 11 -82 13
-70 2 -83 0 -83 -13z"/>
<path d="M4730 4295 c0 -11 12 -15 45 -15 33 0 45 4 45 15 0 11 -12 15 -45 15
-33 0 -45 -4 -45 -15z"/>
<path d="M4940 4295 c0 -12 18 -15 100 -15 82 0 100 3 100 15 0 12 -18 15
-100 15 -82 0 -100 -3 -100 -15z"/>
<path d="M5180 4295 c0 -12 16 -15 85 -15 69 0 85 3 85 15 0 12 -16 15 -85 15
-69 0 -85 -3 -85 -15z"/>
<path d="M4800 4185 c0 -13 37 -15 275 -15 238 0 275 2 275 15 0 13 -37 15
-275 15 -238 0 -275 -2 -275 -15z"/>
<path d="M4520 4075 c0 -13 29 -15 205 -15 176 0 205 2 205 15 0 13 -29 15
-205 15 -176 0 -205 -2 -205 -15z"/>
<path d="M4590 3965 c0 -12 16 -15 80 -15 64 0 80 3 80 15 0 12 -16 15 -80 15
-64 0 -80 -3 -80 -15z"/>
<path d="M4870 3965 c0 -12 19 -15 115 -15 96 0 115 3 115 15 0 12 -19 15
-115 15 -96 0 -115 -3 -115 -15z"/>
<path d="M4550 3624 c0 -11 8 -14 32 -12 46 4 49 28 4 28 -26 0 -36 -4 -36
-16z"/>
<path d="M4660 3625 c0 -12 18 -15 100 -15 82 0 100 3 100 15 0 12 -18 15
-100 15 -82 0 -100 -3 -100 -15z"/>
<path d="M4900 3625 c0 -12 14 -15 65 -15 51 0 65 3 65 15 0 12 -14 15 -65 15
-51 0 -65 -3 -65 -15z"/>
<path d="M5330 3180 c0 -5 5 -10 10 -10 6 0 10 5 10 10 0 6 -4 10 -10 10 -5 0
-10 -4 -10 -10z"/>
<path d="M4995 3037 c-4 -16 -25 -178 -25 -198 0 -13 14 -18 63 -23 34 -4 74
-10 90 -13 22 -5 27 -2 27 15 0 22 -10 27 -84 37 l-49 7 7 66 c4 37 9 77 12
88 4 16 0 23 -16 27 -12 3 -23 0 -25 -6z"/>
<path d="M5227 2908 c-21 -125 -21 -118 3 -118 14 0 21 9 26 38 4 20 12 67 19
104 13 71 12 78 -15 78 -13 0 -20 -21 -33 -102z"/>
<path d="M5391 2925 c-53 -45 -64 -131 -22 -169 16 -14 128 -42 136 -34 2 2 7
27 11 56 6 48 5 52 -13 52 -15 0 -22 -9 -26 -30 -5 -23 -12 -30 -30 -30 -57 0
-78 57 -40 108 22 30 57 40 79 22 11 -10 17 -10 30 1 15 12 14 15 -6 31 -32
26 -83 23 -119 -7z"/>
<path d="M5893 2943 c-34 -3 -43 -8 -43 -23 0 -15 9 -19 43 -22 l42 -3 9 -88
c7 -73 11 -87 25 -85 13 3 16 18 16 93 l0 90 38 3 c29 3 37 7 37 23 0 17 -7
19 -62 17 -35 -1 -82 -3 -105 -5z"/>
<path d="M5610 2820 c0 -102 1 -110 19 -110 16 0 20 8 23 43 l3 42 55 0 55 0
3 -42 c3 -34 7 -43 22 -43 17 0 19 10 22 110 3 108 3 110 -19 110 -20 0 -23
-5 -23 -45 l0 -45 -60 0 -60 0 0 45 c0 38 -3 45 -20 45 -19 0 -20 -7 -20 -110z"/>
<path d="M2841 3099 c-23 -56 -41 -102 -39 -104 14 -13 155 -65 165 -61 29 11
10 34 -47 57 -33 13 -60 29 -60 35 0 6 14 44 32 83 26 61 29 74 17 82 -8 5
-17 9 -20 9 -4 0 -25 -45 -48 -101z"/>
<path d="M3073 3004 c-35 -46 -63 -88 -63 -93 0 -5 28 -30 62 -56 57 -43 63
-45 75 -29 11 15 6 21 -32 51 -48 36 -50 40 -35 63 8 12 13 11 39 -8 35 -26
47 -27 54 -7 4 9 -6 24 -26 39 -30 24 -31 27 -15 42 15 15 19 14 62 -16 39
-28 48 -31 61 -20 18 15 10 23 -80 88 l-40 29 -62 -83z"/>
<path d="M3302 2918 c-9 -9 -7 -20 10 -46 12 -20 17 -37 11 -41 -113 -76 -132
-94 -122 -113 11 -21 10 -21 93 39 32 24 62 43 66 43 4 0 17 -14 27 -30 17
-27 21 -29 38 -17 17 13 15 19 -41 96 -32 44 -61 81 -64 81 -3 0 -11 -5 -18
-12z"/>
<path d="M3493 2619 c-9 -9 -7 -18 7 -37 11 -14 20 -30 20 -36 -1 -6 -33 -33
-72 -59 -63 -44 -69 -51 -55 -64 14 -14 22 -11 82 31 36 25 70 46 75 46 4 0
17 -12 28 -27 13 -17 25 -24 36 -20 9 4 16 10 16 14 0 12 -104 156 -115 160
-6 2 -16 -2 -22 -8z"/>
<path d="M3557 2366 c-82 -70 -85 -74 -68 -90 16 -15 19 -14 41 9 13 14 29 25
36 25 7 0 27 -19 45 -41 l33 -42 -34 -29 c-31 -25 -33 -30 -19 -44 14 -14 23
-9 95 52 43 37 79 71 78 76 -3 24 -5 28 -13 28 -5 0 -24 -12 -41 -27 l-32 -27
-34 40 c-18 21 -33 43 -34 48 0 5 13 21 30 35 25 22 28 28 17 43 -12 15 -22 9
-100 -56z"/>
<path d="M4770 2240 c-36 -22 -65 -43 -65 -47 0 -12 107 -183 114 -183 3 0 36
19 73 43 59 37 65 44 54 59 -12 16 -16 15 -60 -12 -54 -35 -62 -36 -70 -13 -6
16 26 52 47 53 10 0 9 28 -3 35 -5 3 -23 -1 -39 -10 -37 -19 -47 -19 -55 0 -3
10 11 25 42 46 26 18 49 34 51 36 3 2 -2 10 -10 18 -13 13 -22 10 -79 -25z"/>
<path d="M3756 2154 c-32 -52 -57 -96 -55 -98 4 -3 103 -65 126 -79 7 -5 16 1
22 12 9 17 4 23 -39 50 -53 32 -57 40 -38 59 9 9 20 7 46 -10 28 -17 36 -18
43 -7 14 22 11 27 -21 46 -16 9 -30 23 -30 30 0 25 29 25 74 -2 44 -26 66 -26
66 -2 0 7 -21 25 -48 41 -26 17 -56 36 -67 43 -19 11 -24 5 -79 -83z"/>
<path d="M3980 2108 c-7 -24 -20 -73 -30 -110 -10 -38 -15 -68 -10 -68 5 0 15
-3 23 -6 11 -4 17 5 22 33 9 49 11 52 33 46 10 -2 31 -29 45 -59 25 -50 48
-67 62 -45 3 5 -2 26 -12 45 -9 20 -15 37 -12 38 2 2 18 10 34 18 60 31 42 89
-37 118 -104 38 -106 38 -118 -10z m133 -46 c25 -22 6 -35 -40 -28 -51 9 -65
19 -57 40 5 14 14 16 43 11 20 -4 44 -14 54 -23z"/>
<path d="M4548 2127 c-31 -13 -59 -25 -62 -28 -3 -3 13 -51 35 -107 l41 -101
51 20 c68 26 100 50 111 82 8 22 6 31 -13 51 -14 15 -21 31 -17 41 8 22 -37
65 -66 64 -13 0 -49 -10 -80 -22z m100 -39 c-2 -7 -24 -23 -48 -35 -33 -18
-46 -20 -52 -10 -14 22 -8 35 20 45 40 15 84 15 80 0z m32 -83 c0 -8 -20 -25
-46 -37 -39 -19 -46 -20 -54 -8 -15 24 -12 30 23 45 43 19 77 19 77 0z"/>
<path d="M4204 1989 c-10 -126 -20 -113 94 -123 61 -6 62 -5 62 19 0 22 -4 24
-57 27 -50 3 -58 6 -58 23 0 16 8 21 43 23 33 3 42 7 42 22 0 15 -9 20 -37 22
-31 2 -39 7 -41 27 -4 24 -3 24 62 18 61 -6 66 -5 66 14 0 24 -6 26 -96 33
l-71 6 -9 -111z"/>
<path d="M3594 1367 c-47 -29 -52 -36 -58 -77 -4 -25 -19 -95 -34 -156 l-27
-111 47 -10 c26 -5 45 -6 43 -3 -2 4 16 92 40 196 24 104 43 190 42 191 -1 1
-25 -13 -53 -30z"/>
<path d="M4661 1382 c-19 -9 -43 -29 -54 -43 -22 -31 -25 -91 -5 -121 12 -18
12 -26 -5 -60 -25 -50 -17 -98 24 -132 38 -33 66 -40 134 -34 64 5 120 43 142
95 18 45 10 83 -27 118 -24 23 -30 37 -30 71 0 49 -28 90 -76 110 -44 18 -62
18 -103 -4z m87 -84 c17 -17 15 -26 -12 -43 -19 -13 -29 -14 -45 -5 -36 19
-19 60 24 60 12 0 26 -5 33 -12z m66 -160 c24 -39 -67 -84 -120 -59 -30 13
-31 45 -1 66 29 21 106 16 121 -7z"/>
<path d="M3840 1357 c-49 -17 -83 -71 -77 -121 5 -34 1 -45 -24 -73 -42 -48
-40 -101 4 -149 92 -101 287 -60 287 59 0 24 -8 54 -19 71 -17 25 -17 31 -5
55 18 34 18 55 -2 97 -26 55 -101 83 -164 61z m74 -83 c23 -9 20 -51 -4 -59
-38 -12 -79 33 -53 58 8 9 36 9 57 1z m10 -165 c31 -24 33 -44 7 -59 -35 -18
-88 -12 -118 15 l-28 25 24 20 c30 26 81 26 115 -1z"/>
<path d="M3280 1330 c-41 -41 -12 -120 44 -120 38 0 69 32 69 70 0 61 -71 92
-113 50z"/>
<path d="M4243 1325 c-57 -34 -91 -105 -99 -205 -5 -68 -4 -78 18 -110 35 -52
80 -72 155 -68 52 3 69 9 100 34 51 42 65 92 38 142 -29 53 -77 77 -152 76
l-62 0 14 26 c21 40 66 56 117 41 38 -12 42 -11 66 12 29 29 23 43 -24 63 -53
22 -123 18 -171 -11z m128 -234 c23 -19 23 -19 5 -40 -35 -39 -127 -36 -143 5
-17 45 92 73 138 35z"/>
<path d="M5029 1332 c-47 -39 -16 -122 47 -122 33 0 64 34 64 70 0 60 -64 90
-111 52z"/>
<path d="M2486 7089 c-50 -40 -21 -119 44 -119 64 0 91 70 45 115 -30 30 -54
31 -89 4z"/>
<path d="M5827 7096 c-29 -22 -33 -80 -8 -105 44 -44 121 -13 121 48 0 54 -71
89 -113 57z"/>
<path d="M2330 7000 c-42 -42 -10 -120 50 -120 60 0 91 92 43 128 -25 18 -70
15 -93 -8z"/>
<path d="M5978 7009 c-10 -5 -20 -25 -24 -45 -13 -68 69 -112 116 -62 57 61
-19 150 -92 107z"/>
<path d="M2185 6905 c-30 -29 -32 -68 -5 -95 45 -45 120 -18 120 44 0 37 -7
49 -37 65 -33 17 -51 14 -78 -14z"/>
<path d="M6135 6918 c-28 -16 -35 -28 -35 -64 0 -62 75 -89 120 -44 27 27 25
66 -5 95 -26 27 -49 31 -80 13z"/>
<path d="M2063 6820 c-43 -17 -58 -84 -25 -113 30 -28 65 -30 95 -7 35 28 36
72 2 105 -26 27 -37 29 -72 15z"/>
<path d="M6283 6820 c-49 -20 -58 -87 -16 -120 45 -35 113 -5 113 50 0 51 -51
88 -97 70z"/>
<path d="M1922 6710 c-27 -11 -44 -52 -36 -85 3 -13 20 -30 36 -38 65 -31 121
23 93 90 -18 41 -46 51 -93 33z"/>
<path d="M6417 6713 c-10 -3 -25 -19 -32 -36 -28 -67 28 -121 93 -90 52 25 50
97 -5 122 -25 12 -27 12 -56 4z"/>
<path d="M1771 6574 c-27 -35 -26 -59 4 -89 47 -48 115 -22 115 44 0 70 -77
99 -119 45z"/>
<path d="M6527 6582 c-25 -28 -22 -87 5 -106 32 -23 65 -20 93 9 30 30 31 54
4 89 -25 32 -77 36 -102 8z"/>
<path d="M1650 6460 c-43 -43 -11 -120 50 -120 62 0 92 73 50 118 -26 28 -73
29 -100 2z"/>
<path d="M6650 6458 c-42 -45 -12 -118 50 -118 63 0 93 75 47 118 -30 28 -71
28 -97 0z"/>
<path d="M1530 6330 c-20 -20 -26 -65 -12 -86 11 -16 48 -34 71 -34 51 0 78
71 45 118 -20 29 -76 30 -104 2z"/>
<path d="M6766 6328 c-34 -48 -6 -118 48 -118 35 0 76 37 76 69 0 63 -90 98
-124 49z"/>
<path d="M1422 6197 c-29 -31 -29 -81 0 -101 31 -22 74 -20 98 4 26 26 25 60
-1 94 -26 33 -68 34 -97 3z"/>
<path d="M6881 6194 c-26 -34 -27 -68 -1 -94 24 -24 67 -26 98 -4 32 22 30 76
-4 103 -36 28 -68 26 -93 -5z"/>
<path d="M1315 6055 c-28 -27 -31 -45 -14 -78 16 -30 28 -37 65 -37 39 0 64
27 64 68 0 66 -69 94 -115 47z"/>
<path d="M6990 6060 c-45 -45 -18 -120 44 -120 37 0 49 7 65 37 17 33 14 51
-14 78 -29 30 -68 32 -95 5z"/>
<path d="M1232 5924 c-54 -37 -49 -103 10 -123 60 -21 115 38 87 92 -25 47
-59 58 -97 31z"/>
<path d="M7099 5927 c-70 -53 -22 -155 59 -126 56 19 60 103 6 128 -31 14 -45
14 -65 -2z"/>
<path d="M1133 5775 c-27 -19 -37 -59 -22 -88 16 -30 28 -37 66 -37 52 0 85
49 62 92 -25 48 -67 61 -106 33z"/>
<path d="M7189 5777 c-59 -46 -38 -127 34 -127 38 0 50 7 66 38 31 60 -47 129
-100 89z"/>
<path d="M1058 5624 c-54 -29 -45 -107 16 -127 22 -7 33 -5 55 10 71 53 7 159
-71 117z"/>
<path d="M7267 5620 c-20 -16 -27 -30 -27 -55 0 -67 79 -95 123 -43 53 62 -31
149 -96 98z"/>
<path d="M970 5460 c-45 -45 -18 -120 44 -120 37 0 49 7 65 37 17 33 14 51
-14 78 -29 30 -68 32 -95 5z"/>
<path d="M7335 5455 c-28 -27 -31 -45 -14 -78 16 -30 28 -37 65 -37 62 0 89
75 44 120 -27 27 -66 25 -95 -5z"/>
<path d="M906 5299 c-19 -15 -26 -30 -26 -53 0 -42 26 -66 73 -66 64 0 89 69
42 115 -30 30 -54 31 -89 4z"/>
<path d="M7405 5295 c-48 -47 -22 -115 44 -115 70 0 99 77 45 119 -35 27 -59
26 -89 -4z"/>
<path d="M860 5147 c-56 -28 -51 -114 8 -131 83 -23 128 90 52 129 -35 18 -29
18 -60 2z"/>
<path d="M7460 5130 c-47 -47 -1 -129 65 -116 53 11 72 67 39 114 -20 29 -76
30 -104 2z"/>
<path d="M797 4970 c-33 -26 -37 -78 -9 -103 25 -23 78 -21 102 3 59 59 -27
152 -93 100z"/>
<path d="M7515 4965 c-48 -47 -19 -115 48 -115 66 0 93 78 41 119 -35 27 -59
26 -89 -4z"/>
<path d="M754 4806 c-28 -20 -38 -60 -23 -89 16 -30 28 -37 66 -37 59 0 91 75
50 117 -21 21 -70 26 -93 9z"/>
<path d="M7571 4807 c-63 -31 -41 -119 31 -125 69 -6 100 75 46 121 -24 20
-44 21 -77 4z"/>
<path d="M716 4629 c-30 -24 -34 -63 -10 -97 11 -16 25 -22 54 -22 44 0 70 26
70 71 0 30 -40 69 -70 69 -10 0 -29 -9 -44 -21z"/>
<path d="M7596 4629 c-30 -24 -34 -63 -10 -97 11 -16 25 -22 54 -22 44 0 70
26 70 71 0 30 -40 69 -70 69 -10 0 -29 -9 -44 -21z"/>
<path d="M703 4468 c-51 -24 -50 -106 1 -130 53 -23 117 33 97 85 -16 42 -61
63 -98 45z"/>
<path d="M7643 4470 c-12 -5 -29 -20 -39 -35 -22 -33 -5 -78 37 -96 84 -34
135 92 53 130 -14 6 -26 11 -27 10 -1 0 -12 -4 -24 -9z"/>
<path d="M667 4282 c-25 -28 -22 -87 5 -106 32 -23 65 -20 93 9 30 30 31 54 4
89 -25 32 -77 36 -102 8z"/>
<path d="M7631 4274 c-27 -35 -26 -59 4 -89 47 -48 115 -19 115 48 0 66 -78
93 -119 41z"/>
<path d="M662 4110 c-28 -26 -29 -80 -4 -103 25 -23 78 -21 102 3 27 27 25 66
-5 95 -29 30 -64 32 -93 5z"/>
<path d="M7645 4105 c-48 -47 -19 -115 48 -115 42 0 67 26 67 68 0 66 -69 94
-115 47z"/>
<path d="M657 3932 c-39 -43 -7 -122 48 -122 33 0 75 42 75 75 0 56 -86 89
-123 47z"/>
<path d="M7640 3930 c-11 -11 -20 -31 -20 -45 0 -32 42 -75 73 -75 54 0 89 87
49 123 -25 23 -78 21 -102 -3z"/>
<path d="M670 3760 c-26 -26 -26 -81 -2 -103 29 -26 77 -22 101 9 27 35 26 59
-4 89 -29 30 -68 32 -95 5z"/>
<path d="M7635 3755 c-30 -30 -31 -54 -4 -89 15 -19 30 -26 53 -26 42 0 66 26
66 73 0 64 -69 89 -115 42z"/>
<path d="M697 3599 c-72 -42 -13 -162 61 -127 58 28 61 102 5 127 -29 13 -43
13 -66 0z"/>
<path d="M7633 3598 c-12 -6 -27 -23 -33 -39 -10 -24 -10 -33 4 -54 35 -53
103 -51 126 4 13 33 0 75 -29 90 -24 13 -39 13 -68 -1z"/>
<path d="M706 3408 c-24 -34 -20 -73 10 -97 15 -12 34 -21 44 -21 30 0 70 39
70 69 0 45 -26 71 -70 71 -29 0 -43 -6 -54 -22z"/>
<path d="M7586 3408 c-24 -34 -20 -73 10 -97 15 -12 34 -21 44 -21 30 0 70 39
70 69 0 45 -26 71 -70 71 -29 0 -43 -6 -54 -22z"/>
<path d="M740 3233 c-25 -32 -20 -69 13 -96 23 -20 71 -17 94 6 42 43 9 117
-52 117 -25 0 -39 -7 -55 -27z"/>
<path d="M7550 3233 c-34 -43 -14 -96 41 -108 57 -13 104 47 78 98 -16 30 -28
37 -66 37 -23 0 -38 -8 -53 -27z"/>
<path d="M787 3072 c-27 -29 -22 -77 10 -102 66 -52 152 41 93 100 -26 26 -81
26 -103 2z"/>
<path d="M7510 3070 c-27 -27 -25 -66 5 -95 30 -30 54 -31 89 -4 32 25 36 77
8 102 -25 23 -78 21 -102 -3z"/>
<path d="M853 2920 c-47 -19 -40 -104 9 -128 23 -11 32 -10 56 2 50 26 58 82
16 115 -29 23 -46 25 -81 11z"/>
<path d="M7467 2910 c-54 -42 -23 -120 47 -120 40 0 66 28 66 70 0 60 -64 88
-113 50z"/>
<path d="M897 2742 c-26 -29 -22 -77 9 -101 35 -27 59 -26 89 4 29 28 32 61 9
93 -20 28 -83 31 -107 4z"/>
<path d="M7396 2738 c-23 -32 -20 -65 9 -93 30 -30 54 -31 89 -4 32 25 36 77
8 102 -28 25 -87 22 -106 -5z"/>
<path d="M968 2583 c-8 -10 -17 -25 -20 -34 -9 -23 18 -76 42 -84 74 -24 129
64 74 119 -21 21 -77 20 -96 -1z"/>
<path d="M7336 2584 c-40 -39 -23 -107 30 -120 67 -17 113 66 67 119 -20 21
-76 22 -97 1z"/>
<path d="M1060 2437 c-56 -28 -48 -110 14 -130 68 -22 117 77 60 122 -31 24
-40 25 -74 8z"/>
<path d="M7267 2430 c-66 -52 -2 -154 72 -115 44 22 54 67 24 103 -27 32 -64
37 -96 12z"/>
<path d="M1126 2275 c-37 -38 -24 -102 26 -119 56 -20 114 45 87 96 -6 12 -17
26 -23 30 -19 13 -74 9 -90 -7z"/>
<path d="M7184 2282 c-25 -17 -36 -53 -24 -82 24 -59 97 -65 125 -9 27 50 -2
99 -58 99 -18 0 -37 -4 -43 -8z"/>
<path d="M1238 2139 c-55 -21 -53 -106 3 -129 79 -33 135 86 58 125 -15 8 -29
15 -31 14 -2 0 -15 -5 -30 -10z"/>
<path d="M7099 2135 c-49 -26 -45 -98 7 -126 30 -15 65 -1 90 36 22 34 4 79
-38 94 -17 6 -31 11 -32 11 -1 -1 -13 -7 -27 -15z"/>
<path d="M1316 1984 c-54 -54 -4 -138 70 -120 27 7 56 59 46 85 -17 49 -83 69
-116 35z"/>
<path d="M6988 1983 c-8 -10 -17 -25 -20 -34 -9 -23 18 -76 42 -84 74 -24 129
64 74 119 -21 21 -77 20 -96 -1z"/>
<path d="M1422 1844 c-32 -22 -30 -76 4 -103 15 -12 37 -21 50 -21 27 0 64 43
64 76 0 54 -70 82 -118 48z"/>
<path d="M6880 1840 c-26 -26 -25 -60 1 -94 40 -51 119 -18 119 52 0 56 -78
84 -120 42z"/>
<path d="M1545 1718 c-27 -15 -35 -28 -35 -59 0 -61 90 -95 124 -47 47 67 -19
146 -89 106z"/>
<path d="M6770 1710 c-24 -24 -26 -67 -4 -98 34 -48 124 -15 124 46 0 33 -8
45 -37 61 -32 16 -60 14 -83 -9z"/>
<path d="M1650 1580 c-27 -27 -26 -71 3 -98 30 -28 71 -28 97 0 42 45 12 118
-50 118 -17 0 -39 -9 -50 -20z"/>
<path d="M6650 1580 c-63 -63 32 -161 98 -100 46 43 15 120 -48 120 -17 0 -39
-9 -50 -20z"/>
<path d="M1775 1455 c-30 -30 -31 -54 -4 -89 15 -19 30 -26 53 -26 42 0 66 26
66 73 0 64 -69 89 -115 42z"/>
<path d="M6532 1464 c-28 -20 -31 -83 -4 -107 29 -26 77 -22 101 9 27 35 26
59 -4 89 -28 29 -61 32 -93 9z"/>
<path d="M1922 1353 c-16 -8 -33 -25 -36 -38 -20 -81 97 -128 129 -52 28 67
-28 121 -93 90z"/>
<path d="M6419 1358 c-14 -5 -31 -20 -38 -34 -15 -34 8 -91 41 -99 81 -20 133
89 60 126 -36 18 -34 17 -63 7z"/>
<path d="M2070 1253 c-76 -28 -60 -136 20 -136 66 0 95 82 44 122 -27 21 -38
24 -64 14z"/>
<path d="M6267 1240 c-36 -28 -36 -72 -1 -106 29 -30 67 -27 97 8 54 64 -30
150 -96 98z"/>
<path d="M2198 1144 c-48 -25 -49 -90 -2 -120 46 -31 104 3 104 60 0 55 -54
86 -102 60z"/>
<path d="M6150 1153 c-48 -18 -68 -84 -34 -117 54 -55 143 0 119 73 -5 17 -54
54 -67 50 -2 0 -10 -3 -18 -6z"/>
<path d="M2330 1038 c-40 -44 -12 -118 46 -118 41 0 63 18 70 56 13 68 -69
112 -116 62z"/>
<path d="M5971 1036 c-19 -20 -22 -32 -17 -60 7 -38 29 -56 70 -56 58 0 86 74
46 118 -28 29 -71 28 -99 -2z"/>
<path d="M2480 950 c-58 -58 27 -155 93 -106 29 22 33 80 8 105 -27 27 -75 27
-101 1z"/>
<path d="M5820 950 c-27 -27 -25 -66 5 -95 30 -30 54 -31 89 -4 50 40 21 119
-44 119 -17 0 -39 -9 -50 -20z"/>
<path d="M2630 863 c-25 -32 -20 -69 12 -95 44 -38 108 -9 110 50 2 69 -79
100 -122 45z"/>
<path d="M5665 870 c-25 -27 -22 -80 6 -102 30 -25 66 -22 94 7 30 30 31 54 4
89 -26 33 -77 36 -104 6z"/>
<path d="M2792 797 c-29 -30 -28 -62 3 -92 47 -48 115 -22 115 44 0 68 -72 97
-118 48z"/>
<path d="M5507 802 c-25 -28 -22 -87 5 -106 12 -9 33 -16 46 -16 30 0 72 42
72 73 0 54 -87 89 -123 49z"/>
<path d="M2955 734 c-30 -33 -31 -53 -4 -88 14 -18 30 -26 52 -26 40 0 53 9
66 43 29 75 -60 130 -114 71z"/>
<path d="M5349 742 c-28 -23 -30 -73 -4 -102 27 -30 78 -27 104 6 27 35 26 55
-4 88 -28 31 -64 33 -96 8z"/>
<path d="M3120 680 c-42 -42 -7 -120 54 -120 54 0 84 70 50 118 -20 29 -76 30
-104 2z"/>
<path d="M5176 678 c-23 -32 -20 -74 6 -98 64 -59 160 38 98 100 -28 28 -84
27 -104 -2z"/>
<path d="M3297 640 c-20 -16 -27 -30 -27 -55 0 -67 79 -95 123 -43 53 62 -31
149 -96 98z"/>
<path d="M5033 650 c-68 -28 -48 -133 26 -133 68 0 98 76 47 120 -29 25 -39
27 -73 13z"/>
<path d="M3466 599 c-52 -41 -25 -119 42 -119 66 0 94 69 47 115 -30 30 -54
31 -89 4z"/>
<path d="M4845 595 c-46 -46 -20 -115 43 -117 69 -2 100 74 48 119 -35 30 -61
29 -91 -2z"/>
<path d="M3635 565 c-48 -47 -21 -118 45 -118 66 0 93 71 45 118 -13 14 -33
25 -45 25 -11 0 -32 -11 -45 -25z"/>
<path d="M4675 565 c-48 -47 -22 -115 44 -115 45 0 71 24 71 64 0 32 -40 76
-70 76 -11 0 -32 -11 -45 -25z"/>
<path d="M3820 557 c-34 -17 -48 -69 -27 -100 37 -57 119 -35 125 35 5 54 -49
90 -98 65z"/>
<path d="M4530 563 c-48 -18 -68 -84 -34 -117 52 -53 135 -8 119 64 -9 41 -49
66 -85 53z"/>
<path d="M3976 531 c-26 -28 -24 -80 4 -103 31 -25 66 -23 96 8 28 27 27 63
-3 97 -21 23 -75 22 -97 -2z"/>
<path d="M4155 525 c-50 -49 -22 -115 48 -115 40 0 67 27 67 68 0 29 -42 72
-70 72 -11 0 -32 -11 -45 -25z"/>
<path d="M4327 533 c-30 -34 -31 -70 -3 -97 32 -33 70 -33 102 0 20 19 24 31
19 52 -10 40 -34 62 -70 62 -18 0 -39 -8 -48 -17z"/>
</g>
</svg>
