<?xml version="1.0" standalone="no"?>
<!DOCTYPE svg PUBLIC "-//W3C//DTD SVG 20010904//EN"
 "http://www.w3.org/TR/2001/REC-SVG-20010904/DTD/svg10.dtd">
<svg version="1.0" xmlns="http://www.w3.org/2000/svg"
 width="936.000000pt" height="250.000000pt" viewBox="0 0 936.000000 250.000000"
 preserveAspectRatio="xMidYMid meet">
<metadata>
Created by potrace 1.16, written by Peter Selinger 2001-2019
</metadata>
<g transform="translate(0.000000,250.000000) scale(0.100000,-0.100000)"
fill="#000000" stroke="none">
<path d="M6929 2491 c-70 -22 -99 -66 -99 -150 l0 -51 -35 0 c-32 0 -35 -2
-35 -30 0 -28 3 -30 35 -30 l35 0 0 -170 0 -170 40 0 40 0 0 170 0 170 50 0
c49 0 50 1 50 30 0 29 -1 30 -50 30 l-50 0 0 45 c0 36 6 52 26 71 21 22 31 25
61 19 39 -7 53 3 53 41 0 32 -59 43 -121 25z"/>
<path d="M7184 2490 c-55 -17 -93 -83 -94 -162 0 -35 -2 -38 -30 -38 -27 0
-30 -3 -30 -30 0 -27 3 -30 30 -30 l30 0 0 -170 0 -170 40 0 40 0 0 170 0 170
50 0 c49 0 50 1 50 30 0 29 -1 30 -50 30 -48 0 -50 1 -50 29 0 74 39 114 104
108 24 -2 31 3 38 26 6 16 8 30 5 33 -10 10 -104 13 -133 4z"/>
<path d="M7358 2449 c-12 -6 -18 -22 -18 -45 0 -43 34 -64 75 -46 20 9 25 19
25 46 0 48 -40 70 -82 45z"/>
<path d="M6342 2437 c-45 -14 -118 -81 -144 -131 -29 -57 -36 -176 -14 -243
20 -62 74 -126 130 -156 33 -17 58 -22 126 -22 76 0 91 3 138 30 123 67 174
240 113 380 -45 101 -131 156 -245 154 -39 -1 -86 -6 -104 -12z m165 -68 c74
-28 118 -104 117 -204 -1 -108 -44 -177 -131 -206 -81 -26 -168 14 -209 98
-23 45 -26 63 -22 126 3 60 8 82 31 115 46 70 137 100 214 71z"/>
<path d="M3423 2421 c-53 -25 -83 -72 -83 -129 0 -81 36 -123 151 -175 107
-48 133 -91 85 -136 -37 -35 -100 -38 -159 -8 l-47 24 -20 -27 c-30 -42 -25
-55 29 -79 64 -27 169 -28 227 -2 85 39 115 124 73 208 -21 43 -34 53 -111 93
-102 53 -128 75 -128 105 0 55 95 79 167 42 31 -17 32 -17 52 12 28 39 27 48
-11 67 -51 27 -173 29 -225 5z"/>
<path d="M30 2228 c0 -176 3 -208 19 -243 37 -81 101 -115 213 -115 88 0 144
23 180 71 43 57 48 91 48 295 l0 194 -45 0 -45 0 -1 -182 c0 -200 -8 -239 -52
-272 -38 -28 -126 -28 -164 0 -44 33 -52 72 -52 272 l-1 182 -50 0 -50 0 0
-202z"/>
<path d="M690 2156 l0 -276 45 0 45 0 0 201 0 201 53 -73 c29 -41 95 -131 146
-201 l93 -128 49 0 49 0 0 275 0 275 -50 0 -50 0 -1 -192 c0 -153 -3 -189 -12
-175 -7 10 -68 96 -138 190 l-125 172 -52 3 -52 3 0 -275z"/>
<path d="M1370 2155 l0 -275 50 0 50 0 0 275 0 275 -50 0 -50 0 0 -275z"/>
<path d="M1620 2420 c0 -6 48 -130 107 -276 l107 -264 50 0 51 0 103 268 c56
147 102 271 102 275 0 4 -22 7 -48 7 l-48 0 -79 -213 -79 -214 -82 211 -81
211 -51 3 c-33 2 -52 -1 -52 -8z"/>
<path d="M2280 2155 l0 -275 175 0 175 0 0 40 0 40 -125 0 -125 0 0 85 0 85
110 0 110 0 0 40 0 40 -110 0 -110 0 0 70 0 70 120 0 120 0 0 40 0 40 -170 0
-170 0 0 -275z"/>
<path d="M2800 2155 l0 -275 55 0 55 0 0 115 c0 88 3 115 13 115 19 0 66 -53
132 -147 l57 -83 59 0 c46 0 58 3 53 13 -16 26 -138 193 -156 213 -18 20 -18
21 21 33 22 6 51 25 65 42 22 26 26 40 26 96 0 60 -2 67 -33 98 -44 44 -90 55
-229 55 l-118 0 0 -275z m235 181 c39 -17 54 -53 39 -95 -12 -34 -48 -51 -111
-51 l-53 0 0 80 0 80 45 0 c25 0 61 -6 80 -14z"/>
<path d="M3870 2155 l0 -275 50 0 50 0 0 275 0 275 -50 0 -50 0 0 -275z"/>
<path d="M4110 2390 l0 -40 85 0 85 0 0 -235 0 -235 50 0 50 0 0 235 0 235 80
0 80 0 0 40 0 40 -215 0 -215 0 0 -40z"/>
<path d="M4641 2408 c6 -13 49 -89 95 -171 l84 -147 0 -105 0 -105 50 0 50 0
0 98 0 97 95 173 c52 95 95 175 95 178 0 3 -23 4 -51 2 l-51 -3 -65 -123 -66
-124 -66 124 -66 123 -58 3 c-58 3 -58 3 -46 -20z"/>
<path d="M7622 2283 c-109 -54 -138 -229 -56 -340 46 -62 182 -83 250 -38 23
15 24 17 9 45 -18 35 -15 34 -51 15 -50 -26 -110 -16 -141 24 -22 28 -34 91
-27 139 10 66 48 102 106 102 24 0 53 -7 64 -15 26 -20 29 -19 42 10 18 38 15
45 -23 61 -45 19 -132 18 -173 -3z"/>
<path d="M7990 2289 c-69 -28 -110 -100 -110 -196 1 -144 80 -222 214 -211 91
8 133 41 102 81 -12 16 -16 16 -49 2 -47 -19 -101 -19 -132 1 -21 13 -55 78
-55 104 0 6 52 10 130 10 l130 0 0 53 c0 102 -60 168 -154 166 -28 0 -62 -5
-76 -10z m128 -85 c41 -46 31 -54 -63 -54 -91 0 -100 6 -67 47 37 47 90 50
130 7z"/>
<path d="M7350 2090 l0 -200 40 0 40 0 0 200 0 200 -40 0 -40 0 0 -200z"/>
<path d="M6735 1573 c-63 -18 -95 -67 -95 -148 l0 -55 -35 0 c-32 0 -35 -2
-35 -30 0 -28 3 -30 35 -30 l35 0 0 -170 0 -170 35 0 35 0 0 170 0 170 50 0
c49 0 50 1 50 30 0 29 -1 30 -51 30 l-51 0 6 48 c9 65 44 96 96 87 36 -6 38
-5 45 25 4 17 5 33 2 36 -7 8 -101 13 -122 7z"/>
<path d="M7350 1270 l0 -300 40 0 40 0 0 139 0 140 37 30 c41 34 83 40 107 15
13 -13 16 -43 16 -170 l0 -154 40 0 40 0 0 165 c0 181 -7 211 -55 233 -44 20
-108 15 -149 -13 l-36 -24 0 119 0 120 -40 0 -40 0 0 -300z"/>
<path d="M198 1496 c-26 -7 -55 -19 -65 -26 -98 -74 -133 -140 -133 -250 0
-92 27 -157 88 -212 63 -57 104 -71 202 -71 72 -1 93 3 136 26 107 54 160 154
152 281 -6 87 -31 139 -94 195 -75 66 -177 86 -286 57z m159 -87 c151 -57 151
-321 0 -378 -126 -48 -248 44 -248 187 -1 68 13 107 49 146 49 52 132 71 199
45z"/>
<path d="M730 1220 l0 -280 50 0 50 0 0 125 0 125 105 0 105 0 0 40 0 40 -105
0 -105 0 0 70 0 70 120 0 120 0 0 45 0 45 -170 0 -170 0 0 -280z"/>
<path d="M7080 1425 c0 -54 0 -55 -30 -55 -27 0 -30 -3 -30 -30 0 -27 3 -30
30 -30 l30 0 1 -127 c0 -193 20 -228 127 -220 67 5 79 16 62 56 -10 25 -15 29
-30 21 -29 -16 -58 -12 -70 9 -5 11 -10 74 -10 140 l0 121 50 0 c49 0 50 1 50
30 0 29 -1 30 -50 30 l-50 0 0 55 0 55 -40 0 -40 0 0 -55z"/>
<path d="M6255 1361 c-66 -40 -95 -100 -95 -193 1 -114 58 -191 153 -204 68
-10 113 3 157 42 101 92 87 284 -26 350 -52 31 -144 33 -189 5z m158 -78 c31
-34 47 -97 37 -152 -12 -67 -46 -100 -103 -101 -99 -1 -145 161 -71 250 36 42
98 43 137 3z"/>
<path d="M7870 1369 c-35 -14 -69 -48 -91 -91 -38 -75 -18 -221 37 -270 50
-44 144 -60 215 -37 52 18 63 32 49 60 -7 13 -14 25 -15 27 -1 1 -18 -5 -38
-13 -61 -25 -111 -20 -146 16 -17 17 -31 36 -31 42 0 7 -3 22 -6 35 -6 22 -6
22 125 22 l131 0 0 53 c0 102 -60 168 -154 166 -28 0 -62 -5 -76 -10z m128
-85 c41 -46 31 -54 -63 -54 -53 0 -85 4 -85 11 0 39 64 84 105 73 11 -3 30
-17 43 -30z"/>
<path d="M8110 544 c0 -97 -1 -105 -17 -98 -38 17 -121 16 -158 -2 -77 -36
-118 -148 -95 -258 25 -122 131 -179 233 -127 29 15 37 16 37 5 0 -10 13 -14
41 -14 l42 0 -7 53 c-3 28 -6 163 -6 300 l0 247 -35 0 -35 0 0 -106z m-22
-170 c20 -14 22 -23 22 -114 0 -95 -1 -99 -27 -119 -89 -71 -170 -8 -161 125
3 54 9 68 33 94 23 24 37 30 70 30 22 0 51 -7 63 -16z"/>
<path d="M7666 604 c-34 -34 -9 -94 39 -94 24 0 55 33 55 57 0 20 -38 53 -59
53 -11 0 -27 -7 -35 -16z"/>
<path d="M6200 326 l0 -276 45 0 45 0 0 103 0 103 81 11 c120 16 170 60 177
160 3 48 0 64 -20 92 -46 68 -66 76 -204 79 l-124 4 0 -276z m221 189 c36 -19
47 -57 35 -117 -7 -36 -39 -55 -108 -63 l-58 -7 0 101 0 101 50 0 c28 0 64 -7
81 -15z"/>
<path d="M2620 571 c-75 -23 -146 -87 -179 -161 -25 -55 -28 -168 -6 -230 21
-61 66 -112 127 -146 47 -26 62 -29 138 -29 100 0 155 21 215 80 58 59 80 115
80 210 0 70 -4 87 -30 134 -36 65 -92 115 -153 135 -47 17 -149 20 -192 7z
m157 -96 c76 -32 112 -93 113 -188 0 -120 -73 -197 -187 -197 -140 0 -222 162
-153 300 43 85 140 121 227 85z"/>
<path d="M155 546 c-61 -28 -116 -87 -140 -149 -27 -70 -18 -198 18 -260 52
-89 139 -137 247 -137 60 0 143 21 173 44 17 13 17 16 3 44 -22 42 -28 44 -72
22 -45 -23 -120 -26 -167 -6 -39 17 -82 61 -97 101 -16 41 -14 136 3 176 39
94 162 133 260 82 16 -8 30 -13 31 -11 50 70 50 70 31 84 -56 41 -212 47 -290
10z"/>
<path d="M745 523 c-13 -29 -167 -413 -202 -501 -4 -9 10 -12 49 -12 l53 0 20
58 20 57 122 3 121 3 24 -61 23 -60 53 0 c46 0 53 2 48 18 -3 9 -52 132 -110
272 l-103 255 -51 3 c-51 3 -51 3 -67 -35z m109 -196 l44 -117 -89 0 c-49 0
-89 1 -89 3 0 2 18 51 40 110 22 58 40 111 40 118 0 23 9 4 54 -114z"/>
<path d="M1200 285 l0 -275 170 0 170 0 0 40 0 40 -115 0 -115 0 0 235 0 235
-55 0 -55 0 0 -275z"/>
<path d="M1680 285 l0 -275 50 0 50 0 0 275 0 275 -50 0 -50 0 0 -275z"/>
<path d="M1970 285 l0 -275 50 0 50 0 0 120 0 120 105 0 105 0 0 40 0 40 -105
0 -105 0 0 75 0 75 120 0 120 0 0 40 0 40 -170 0 -170 0 0 -275z"/>
<path d="M3130 286 l0 -276 50 0 50 0 0 115 c0 108 1 115 20 115 14 0 46 -35
105 -115 l85 -115 55 0 c30 0 55 3 55 6 0 8 -126 181 -157 215 l-23 25 49 21
c60 25 84 60 85 121 1 64 -19 107 -63 134 -32 20 -52 23 -173 26 l-138 4 0
-276z m249 170 c22 -20 28 -65 11 -96 -12 -23 -61 -40 -116 -40 l-44 0 0 81 0
81 64 -4 c45 -3 71 -10 85 -22z"/>
<path d="M3670 285 l0 -275 50 0 50 0 0 202 0 202 28 -45 c16 -24 81 -115 145
-201 l117 -158 45 0 45 0 0 275 0 275 -45 0 -45 0 0 -197 0 -198 -38 56 c-20
30 -84 119 -141 197 l-104 142 -53 0 -54 0 0 -275z"/>
<path d="M4340 285 l0 -275 50 0 50 0 0 275 0 275 -50 0 -50 0 0 -275z"/>
<path d="M4780 535 c-5 -14 -53 -132 -106 -263 -53 -130 -99 -243 -102 -250
-3 -10 8 -12 49 -10 l54 3 20 57 20 58 121 0 122 0 24 -60 23 -60 53 0 c47 0
53 2 48 18 -3 10 -53 132 -109 272 l-104 255 -51 3 c-48 3 -53 1 -62 -23z
m105 -212 l42 -108 -85 -3 c-46 -2 -86 -1 -88 0 -1 2 16 54 39 115 23 61 44
109 46 107 2 -2 23 -52 46 -111z"/>
<path d="M9160 505 l0 -55 -35 0 c-32 0 -35 -2 -35 -30 0 -28 3 -30 35 -30
l35 0 0 -146 0 -146 29 -29 c23 -22 39 -29 69 -29 58 0 105 19 96 39 -3 9 -9
24 -11 34 -4 12 -11 16 -22 11 -74 -30 -81 -18 -81 137 l0 129 45 0 c43 0 45
1 45 30 0 29 -2 30 -45 30 l-45 0 0 55 0 55 -40 0 -40 0 0 -55z"/>
<path d="M6741 434 c-30 -25 -31 -25 -31 -5 0 17 -6 21 -35 21 l-35 0 0 -200
0 -200 35 0 35 0 0 126 c0 101 3 132 17 155 20 34 70 60 100 53 16 -5 21 0 27
26 9 49 9 50 -38 50 -33 0 -52 -7 -75 -26z"/>
<path d="M7000 449 c-35 -14 -69 -48 -91 -91 -38 -75 -18 -221 37 -270 50 -44
144 -60 215 -37 52 18 63 32 49 60 -7 13 -14 25 -15 27 -1 1 -18 -5 -38 -13
-47 -19 -101 -19 -132 1 -21 13 -55 78 -55 104 0 6 52 10 130 10 l130 0 0 53
c0 102 -60 168 -154 166 -28 0 -62 -5 -76 -10z m128 -85 c41 -46 31 -54 -63
-54 -53 0 -85 4 -85 11 0 39 64 84 105 73 11 -3 30 -17 43 -30z"/>
<path d="M7364 450 c-37 -15 -64 -59 -64 -104 0 -56 20 -81 93 -117 74 -37 97
-56 97 -80 0 -38 -85 -53 -140 -24 -26 14 -29 13 -44 -10 -9 -13 -16 -28 -16
-34 0 -16 79 -41 131 -41 94 0 149 46 149 123 0 47 -32 84 -102 117 -74 35
-88 47 -88 75 0 36 61 48 115 23 24 -11 29 -9 46 12 10 14 19 28 19 31 0 4
-18 14 -40 23 -43 17 -121 20 -156 6z"/>
<path d="M8375 446 c-42 -18 -93 -79 -101 -121 -3 -19 -5 -66 -2 -104 3 -56 9
-75 32 -106 50 -65 151 -92 237 -64 52 18 63 32 49 60 -7 13 -14 25 -15 27 -1
1 -18 -5 -38 -13 -41 -17 -100 -20 -126 -5 -24 13 -47 48 -55 88 l-8 32 131 0
131 0 0 53 c0 102 -60 167 -154 167 -28 -1 -65 -7 -81 -14z m133 -82 c41 -46
31 -54 -63 -54 -53 0 -85 4 -85 11 0 39 64 84 105 73 11 -3 30 -17 43 -30z"/>
<path d="M8818 436 c-36 -24 -38 -24 -38 -6 0 17 -7 20 -40 20 l-40 0 0 -200
0 -200 40 0 40 0 0 139 0 140 37 30 c37 30 75 39 101 23 23 -15 32 -75 32
-204 l0 -128 35 0 35 0 0 174 c0 169 -1 176 -23 202 -20 23 -34 28 -83 32 -51
3 -64 0 -96 -22z"/>
<path d="M7660 250 l0 -200 40 0 40 0 0 200 0 200 -40 0 -40 0 0 -200z"/>
</g>
</svg>
