<?xml version="1.0" encoding="UTF-8"?>
<svg version="1.1" xmlns="http://www.w3.org/2000/svg" width="936" height="250">
<path d="M0 0 C7.10130622 4.54993872 11.9984491 10.00390842 14.5703125 18.2109375 C16.31405871 27.4228493 14.63691211 36.0596584 9.859375 44.1015625 C5.31023564 50.13109976 -1.7292146 53.91305132 -9.04296875 55.25390625 C-18.54867566 56.13031894 -26.72875198 54.8188262 -34.41796875 48.87890625 C-40.964301 42.332574 -43.45301962 35.68179635 -43.48046875 26.50390625 C-43.46492377 17.4515487 -40.90545056 11.1887199 -34.85546875 4.37890625 C-25.57967208 -4.04096926 -11.12922971 -5.92595348 0 0 Z M-28.35546875 12.44140625 C-32.44547236 19.25807893 -33.9609041 25.44938473 -32.04296875 33.25390625 C-30.03750425 38.46811395 -27.02948413 42.41851029 -22.21875 45.375 C-17.01683368 47.4763127 -10.88169353 46.86681451 -5.66796875 45.12890625 C-1.36173855 42.05302753 1.96574421 38.21450185 3.95703125 33.25390625 C4.8236141 25.63603844 4.72733311 18.52654344 -0.04296875 12.25390625 C-4.28097089 8.12457083 -7.99461826 6.45538335 -13.85546875 5.87890625 C-19.68085397 6.04408731 -24.17882665 8.49052859 -28.35546875 12.44140625 Z " fill="#4C4C4C" transform="translate(285.04296875,194.74609375)"/>
<path d="M0 0 C7.14504329 5.91241886 10.73613405 11.32710186 11.7265625 20.578125 C12.08488133 30.37919896 10.20578903 36.85785821 4.109375 44.4609375 C-2.06889302 51.10224488 -9.02117893 53.02564117 -17.890625 53.3984375 C-27.3465979 53.19252854 -33.74142979 50.22370795 -40.5 43.58203125 C-46.68787319 36.5472776 -47.51818692 29.16750518 -47.078125 20.02734375 C-46.07977147 11.17587002 -41.90205747 5.35097315 -35.08984375 -0.22265625 C-24.76025684 -7.0925729 -10.13993964 -7.10995768 0 0 Z M-31.890625 10.2109375 C-35.77284542 15.06371302 -36.9394657 20.43085922 -36.4453125 26.578125 C-35.10031515 33.84111071 -31.75101406 38.91816815 -25.640625 43.1484375 C-20.24142643 44.94817036 -14.70505235 44.84956377 -9.328125 43.0234375 C-4.96784851 39.98138413 -1.64104484 36.13178427 0.359375 31.1484375 C1.22308955 23.555784 1.17163077 16.37346561 -3.640625 10.1484375 C-6.92130271 6.73070798 -10.0579382 4.37959019 -14.91015625 3.9453125 C-22.146634 3.81192121 -26.7021471 4.92268118 -31.890625 10.2109375 Z " fill="#4C4C4C" transform="translate(46.640625,103.8515625)"/>
<path d="M0 0 C11 0 11 0 14.2421875 2.8671875 C15.15693669 4.17797047 16.03306495 5.51630083 16.875 6.875 C17.86965655 8.33472749 18.86445382 9.79435911 19.859375 11.25390625 C20.36533203 12.02492676 20.87128906 12.79594727 21.39257812 13.59033203 C24.17272361 17.75801671 27.16687512 21.77030596 30.125 25.8125 C31.21304088 27.317492 32.2991273 28.82389987 33.3828125 30.33203125 C34.06947998 31.28686401 34.06947998 31.28686401 34.77001953 32.26098633 C35.87392094 33.82174253 36.93958524 35.40937786 38 37 C38.33 24.79 38.66 12.58 39 0 C41.97 0 44.94 0 48 0 C48 18.15 48 36.3 48 55 C39 55 39 55 36.50390625 53.0859375 C35.54291016 51.74402344 35.54291016 51.74402344 34.5625 50.375 C33.82128906 49.36953125 33.08007812 48.3640625 32.31640625 47.328125 C31.54391008 46.21900118 30.77178362 45.10961977 30 44 C29.17844156 42.86785639 28.35417894 41.73767062 27.52734375 40.609375 C21.87388107 32.84167069 16.46813723 24.89842044 11 17 C10.67 29.54 10.34 42.08 10 55 C6.7 55 3.4 55 0 55 C0 36.85 0 18.7 0 0 Z " fill="#4C4C4C" transform="translate(367,194)"/>
<path d="M0 0 C10 0 10 0 12.26953125 1.5546875 C13.03330078 2.70324219 13.03330078 2.70324219 13.8125 3.875 C14.44542969 4.77863281 15.07835938 5.68226562 15.73046875 6.61328125 C16.25326416 7.4014624 16.25326416 7.4014624 16.78662109 8.20556641 C18.19929625 10.29473389 19.68199777 12.32351938 21.17578125 14.35546875 C23.41411648 17.40615682 25.6450368 20.46135885 27.8515625 23.53515625 C28.31385254 24.178479 28.77614258 24.82180176 29.25244141 25.48461914 C31.89207725 29.28402793 34.43375854 33.15063781 37 37 C37.33 24.79 37.66 12.58 38 0 C41.3 0 44.6 0 48 0 C48 18.15 48 36.3 48 55 C38 55 38 55 35.1875 52.6484375 C34.465625 51.56820312 33.74375 50.48796875 33 49.375 C32.59539551 48.79250488 32.19079102 48.21000977 31.77392578 47.60986328 C30.92197056 46.37940732 30.08374354 45.13934421 29.25878906 43.890625 C27.61303643 41.41880414 25.87452735 39.02041706 24.1328125 36.61572266 C22.94972849 34.9784189 21.78288656 33.32941386 20.6171875 31.6796875 C17.1170223 26.75855972 13.55192671 21.88389923 10 17 C9.67 29.54 9.34 42.08 9 55 C6.03 55 3.06 55 0 55 C0 36.85 0 18.7 0 0 Z " fill="#4C4C4C" transform="translate(69,7)"/>
<path d="M0 0 C29.21052632 0 29.21052632 0 36 5.375 C38.9792127 9.40808386 38.68375407 14.10578169 38.48046875 18.9296875 C37.7537998 23.5732793 36.65688123 25.04337262 33 28 C30.68391424 29.2441783 28.49419284 30.11969665 26 31 C26.47308594 31.57105469 26.94617188 32.14210937 27.43359375 32.73046875 C31.49392549 37.70892619 35.34253918 42.78406076 39 48.0625 C39.39759521 48.63444092 39.79519043 49.20638184 40.20483398 49.7956543 C43 53.86980745 43 53.86980745 43 55 C38.69422081 56.01445059 35.27886479 56.22677279 31 55 C26.9022885 51.40918199 24.19654407 46.54914059 21.32128906 41.97998047 C17.20081992 35.70404393 17.20081992 35.70404393 11 32 C11 39.59 11 47.18 11 55 C7.37 55 3.74 55 0 55 C0 36.85 0 18.7 0 0 Z M11 8 C11 13.28 11 18.56 11 24 C19.60094823 24.68337217 19.60094823 24.68337217 27 21 C28.42041821 18.15916359 28.31452272 16.14522722 28 13 C25.76793569 10.15219381 24.45007001 9.15002334 21 8 C19.27204648 7.93197033 17.54164635 7.91504355 15.8125 7.9375 C13.4303125 7.9684375 13.4303125 7.9684375 11 8 Z " fill="#4C4C4C" transform="translate(280,7)"/>
<path d="M0 0 C28.17241379 0 28.17241379 0 34.3125 4.8125 C37.44713546 8.87591634 38.21835475 12.52104737 37.875 17.5625 C37.24923724 21.75300119 36.2294286 24.10179485 33 27 C30.40087578 28.51077201 27.74379587 29.77830705 25 31 C25.54744873 31.62201294 25.54744873 31.62201294 26.10595703 32.2565918 C29.91021125 36.62959844 33.45114145 41.13725836 36.875 45.8125 C37.37257813 46.47958984 37.87015625 47.14667969 38.3828125 47.83398438 C42 52.75793055 42 52.75793055 42 55 C38.17106006 55.63346433 34.81424583 55.79927167 31 55 C27.58495942 52.19261789 25.40728694 48.67753519 23 45 C21.83105204 43.33695551 20.64251203 41.69116356 19.43798828 40.05371094 C18.30019769 38.50579197 17.188498 36.93879664 16.078125 35.37109375 C14.05685564 32.61065834 14.05685564 32.61065834 10 32 C10 39.59 10 47.18 10 55 C6.7 55 3.4 55 0 55 C0 36.85 0 18.7 0 0 Z M10 8 C10 13.28 10 18.56 10 24 C18.43102559 24.41007442 18.43102559 24.41007442 26 21 C27.52491998 17.95016004 27.23562548 15.3576631 27 12 C25.16884793 9.38406847 24.09031634 9.03010545 21 8 C19.10529184 7.9314505 17.2083166 7.91519628 15.3125 7.9375 C13.559375 7.958125 11.80625 7.97875 10 8 Z " fill="#4C4C4C" transform="translate(313,194)"/>
<path d="M0 0 C6.38259518 4.74511289 10.24687371 10.64648595 11.58984375 18.49609375 C12.63662289 27.8179375 11.77575384 36.0053725 6.4609375 43.92578125 C2.32564263 48.96050276 -3.50338246 52.34576621 -9.9140625 53.55078125 C-17.86234661 54.26169816 -25.02893861 53.86700177 -31.9140625 49.55078125 C-38.62946884 43.7277117 -42.4407149 37.89541493 -43.22265625 29.06640625 C-43.55016258 19.18166961 -42.52589324 11.17085746 -35.7265625 3.67578125 C-25.8545861 -5.11547352 -11.57125582 -6.82358109 0 0 Z M-31.3515625 11.67578125 C-34.8053401 18.03073204 -34.57907724 24.46988571 -33.9140625 31.55078125 C-32.29797959 36.90753884 -30.14534585 40.52052375 -25.8515625 44.11328125 C-21.0316258 46.47197368 -17.33146564 47.00223151 -11.9140625 46.55078125 C-6.69114365 44.75448766 -2.80186431 42.36378426 0.0859375 37.55078125 C3.44651378 29.95675172 4.25785021 23.31079031 1.5234375 15.42578125 C-0.58019544 10.5498606 -3.42574332 7.37290306 -7.9140625 4.55078125 C-17.45720569 1.36973352 -25.2361258 3.83547779 -31.3515625 11.67578125 Z " fill="#4C4C4C" transform="translate(659.9140625,8.44921875)"/>
<path d="M0 0 C1.37478516 0.01740234 1.37478516 0.01740234 2.77734375 0.03515625 C3.69644531 0.04417969 4.61554688 0.05320313 5.5625 0.0625 C6.27277344 0.07410156 6.98304688 0.08570313 7.71484375 0.09765625 C10.85364852 6.15992713 13.51794243 12.31237795 16.04296875 18.65234375 C16.63377228 20.12648239 16.63377228 20.12648239 17.23651123 21.63040161 C18.06171234 23.69205127 18.88519383 25.75438998 19.70703125 27.81738281 C20.97009063 30.98581827 22.24055041 34.15121666 23.51171875 37.31640625 C24.31424486 39.32404181 25.11634359 41.33184828 25.91796875 43.33984375 C26.29914856 44.28874481 26.68032837 45.23764587 27.07305908 46.21530151 C27.42052185 47.09026276 27.76798462 47.965224 28.12597656 48.86669922 C28.43367981 49.63754852 28.74138306 50.40839783 29.05841064 51.2026062 C29.71484375 53.09765625 29.71484375 53.09765625 29.71484375 55.09765625 C26.08484375 55.09765625 22.45484375 55.09765625 18.71484375 55.09765625 C14.71484375 45.34765625 14.71484375 45.34765625 14.71484375 43.09765625 C6.46484375 43.09765625 -1.78515625 43.09765625 -10.28515625 43.09765625 C-10.94515625 46.06765625 -11.60515625 49.03765625 -12.28515625 52.09765625 C-12.94515625 53.08765625 -13.60515625 54.07765625 -14.28515625 55.09765625 C-16.66796875 55.390625 -16.66796875 55.390625 -19.41015625 55.28515625 C-20.77527344 55.24455078 -20.77527344 55.24455078 -22.16796875 55.203125 C-22.86664063 55.16832031 -23.5653125 55.13351563 -24.28515625 55.09765625 C-22.15296266 48.42136176 -19.69947224 41.91310354 -17.08984375 35.41015625 C-16.69693146 34.42644043 -16.30401917 33.44272461 -15.89920044 32.42919922 C-15.07518402 30.36814396 -14.24987909 28.30760342 -13.42333984 26.24755859 C-12.15333388 23.08064383 -10.88892209 19.91153453 -9.625 16.7421875 C-8.82194665 14.73554416 -8.01857284 12.72902903 -7.21484375 10.72265625 C-6.83568817 9.77173096 -6.45653259 8.82080566 -6.06588745 7.84106445 C-5.71527252 6.96925537 -5.36465759 6.09744629 -5.00341797 5.19921875 C-4.69491913 4.42916504 -4.38642029 3.65911133 -4.068573 2.86572266 C-2.85281277 0.12191508 -2.85281277 0.12191508 0 0 Z M1.71484375 12.09765625 C0.37612734 15.55393006 -0.95521017 19.01299922 -2.28515625 22.47265625 C-2.8575 23.94992188 -2.8575 23.94992188 -3.44140625 25.45703125 C-3.80234375 26.39804688 -4.16328125 27.3390625 -4.53515625 28.30859375 C-5.03789062 29.61256104 -5.03789062 29.61256104 -5.55078125 30.94287109 C-6.39268657 33.03375411 -6.39268657 33.03375411 -6.28515625 35.09765625 C-0.34515625 35.09765625 5.59484375 35.09765625 11.71484375 35.09765625 C10.78671875 32.60203125 9.85859375 30.10640625 8.90234375 27.53515625 C8.61641357 26.76357178 8.3304834 25.9919873 8.03588867 25.19702148 C6.38308439 20.77206237 4.60847322 16.42513981 2.71484375 12.09765625 C2.38484375 12.09765625 2.05484375 12.09765625 1.71484375 12.09765625 Z " fill="#4C4C4C" transform="translate(481.28515625,193.90234375)"/>
<path d="M0 0 C3.3 0 6.6 0 10 0 C14.88027426 10.14558694 19.12608981 20.50526696 23.28857422 30.96069336 C24.38900479 33.72265044 25.49692225 36.4815261 26.60546875 39.24023438 C27.30773491 40.99721873 28.00957417 42.7543738 28.7109375 44.51171875 C29.04209564 45.33556564 29.37325378 46.15941254 29.71444702 47.00822449 C32 52.76998233 32 52.76998233 32 55 C28.37 55 24.74 55 21 55 C17 45.25 17 45.25 17 43 C9.08 43.33 1.16 43.66 -7 44 C-8.32 47.63 -9.64 51.26 -11 55 C-14.63 55 -18.26 55 -22 55 C-19.97630689 48.76507936 -17.75445186 42.66410271 -15.3125 36.58203125 C-14.96872314 35.72115402 -14.62494629 34.86027679 -14.27075195 33.97331238 C-13.54928448 32.16863029 -12.82653073 30.36446194 -12.10253906 28.56079102 C-10.99937511 25.81094233 -9.90177498 23.05891839 -8.8046875 20.30664062 C-8.09929012 18.54413801 -7.39357198 16.78176372 -6.6875 15.01953125 C-6.36241455 14.20378128 -6.0373291 13.38803131 -5.70239258 12.54756165 C-3.97700484 8.26037278 -2.13827255 4.10342727 0 0 Z M4 11 C2.66147204 14.62310328 1.33006282 18.24878144 0 21.875 C-0.3815625 22.90753906 -0.763125 23.94007813 -1.15625 25.00390625 C-1.5171875 25.99003906 -1.878125 26.97617188 -2.25 27.9921875 C-2.58515625 28.90339355 -2.9203125 29.81459961 -3.265625 30.75341797 C-4.10356885 32.92290787 -4.10356885 32.92290787 -4 35 C1.94 35 7.88 35 14 35 C11.03 27.08 8.06 19.16 5 11 C4.67 11 4.34 11 4 11 Z " fill="#4C4C4C" transform="translate(76,194)"/>
<path d="M0 0 C3.3 0 6.6 0 10 0 C10.01458252 1.08418213 10.02916504 2.16836426 10.04418945 3.28540039 C10.10243472 7.33178664 10.1796647 11.37763159 10.26245117 15.42358398 C10.29557767 17.17023899 10.32364737 18.91699788 10.34643555 20.66381836 C10.38020881 23.1838787 10.43253347 25.70299752 10.48828125 28.22265625 C10.49467117 28.99585709 10.5010611 29.76905792 10.50764465 30.56568909 C10.64561088 35.72519066 11.53188588 39.43509379 14 44 C18.6857873 46.99890387 22.43376751 47.49556682 27.9140625 46.64453125 C31.27185828 45.60701008 32.93959876 43.76866417 35 41 C36.29744894 36.91519775 36.22636641 32.76472421 36.31640625 28.515625 C36.33718735 27.70003113 36.35796844 26.88443726 36.37937927 26.04412842 C36.44461297 23.44616895 36.50363768 20.84811087 36.5625 18.25 C36.60571014 16.485667 36.64932522 14.72134387 36.69335938 12.95703125 C36.80026745 8.63812116 36.90160827 4.31911216 37 0 C39.97 0 42.94 0 46 0 C46.0994991 5.53176738 46.17176423 11.06300426 46.21972656 16.59545898 C46.2397382 18.47413213 46.26695637 20.3527438 46.30175781 22.23120117 C46.3507397 24.94465373 46.37307329 27.65727696 46.390625 30.37109375 C46.41127014 31.19959335 46.43191528 32.02809296 46.45318604 32.88169861 C46.45565026 39.40800523 45.02186654 45.58729155 40.58770752 50.59495544 C34.01748531 56.37831013 27.1999997 56.51977758 18.8984375 56.3125 C12.41742162 55.79297969 8.44500585 53.85287898 4.125 49.0625 C0.01764984 43.1430836 -0.27840023 38.55391115 -0.1953125 31.54296875 C-0.1924826 30.64000565 -0.18965271 29.73704254 -0.18673706 28.80671692 C-0.17557607 25.93350766 -0.15047897 23.06061445 -0.125 20.1875 C-0.11496493 18.23503056 -0.10584 16.28255621 -0.09765625 14.33007812 C-0.07565008 9.55326434 -0.04114831 4.77668569 0 0 Z " fill="#4C4C4C" transform="translate(3,7)"/>
<path d="M0 0 C11.22 0 22.44 0 34 0 C34 2.64 34 5.28 34 8 C26.08 8 18.16 8 10 8 C10 12.62 10 17.24 10 22 C17.26 22 24.52 22 32 22 C32 24.64 32 27.28 32 30 C24.74 30 17.48 30 10 30 C10 35.61 10 41.22 10 47 C18.25 47 26.5 47 35 47 C35 49.64 35 52.28 35 55 C23.45 55 11.9 55 0 55 C0 36.85 0 18.7 0 0 Z " fill="#4C4C4C" transform="translate(228,7)"/>
<path d="M0 0 C0.74628662 0.00580078 1.49257324 0.01160156 2.26147461 0.01757812 C7.58402668 0.14340402 11.77322733 0.92941395 16.5625 3.375 C16.5625 7.65209699 15.85629749 8.93430376 13.5625 12.375 C12.95664062 12.14683594 12.35078125 11.91867188 11.7265625 11.68359375 C5.40950109 9.51635576 0.10547909 8.70252866 -6.4375 10.375 C-11.09899567 12.83287954 -14.42698368 15.5652717 -16.23828125 20.6015625 C-17.73335442 27.60900469 -18.01545277 34.18679444 -14.13671875 40.48828125 C-10.64420573 44.84715409 -7.43580918 47.03894497 -1.75390625 47.67578125 C3.97954691 47.70017892 7.43846835 47.1244804 12.5625 44.375 C14.8125 44.8125 14.8125 44.8125 16.5625 46.375 C17.8125 49.5 17.8125 49.5 18.5625 52.375 C17.31514433 53.0259259 16.06448168 53.67051669 14.8125 54.3125 C14.11640625 54.67214844 13.4203125 55.03179687 12.703125 55.40234375 C5.84447815 58.5187727 -2.89519985 58.5371382 -10.109375 56.69140625 C-18.17046535 53.34188422 -23.67291048 48.19376285 -27.4375 40.375 C-29.96390179 32.79579464 -29.77103777 22.07245306 -26.4375 14.8125 C-20.49439738 4.84017527 -11.52108015 -0.21662467 0 0 Z " fill="#4C4C4C" transform="translate(28.4375,192.625)"/>
<path d="M0 0 C3.3 0 6.6 0 10 0 C14.06743068 8.56248308 17.49605646 17.31686657 20.8125 26.1875 C21.3193185 27.53463429 21.82647798 28.88164034 22.33398438 30.22851562 C23.55991109 33.4842131 24.78125966 36.74160447 26 40 C27.58765922 37.61851117 28.53159384 35.87493642 29.51220703 33.26293945 C29.93241623 32.15212761 29.93241623 32.15212761 30.3611145 31.01887512 C30.80498001 29.82810616 30.80498001 29.82810616 31.2578125 28.61328125 C31.56572723 27.79627243 31.87364197 26.97926361 32.19088745 26.13749695 C33.17248647 23.53048774 34.14880233 20.92153594 35.125 18.3125 C35.79001732 16.54348921 36.4553778 14.77460738 37.12109375 13.00585938 C38.75138 8.67205873 40.37693118 4.33650857 42 0 C45.3 0 48.6 0 52 0 C51.39654884 3.35824825 50.56876383 6.43117793 49.35766602 9.61914062 C49.02384415 10.50355835 48.69002228 11.38797607 48.34608459 12.29919434 C47.98566574 13.24202271 47.62524689 14.18485107 47.25390625 15.15625 C46.69714455 16.62608337 46.69714455 16.62608337 46.12913513 18.12561035 C44.94389851 21.25180323 43.75322036 24.37589225 42.5625 27.5 C41.76462697 29.60273295 40.96709708 31.70559614 40.16992188 33.80859375 C38.70589198 37.66679191 37.24099146 41.52465067 35.77172852 45.38085938 C35.47718277 46.15409546 35.18263702 46.92733154 34.87916565 47.72399902 C33.93931516 50.15710208 32.96870404 52.57823991 32 55 C28.37 55 24.74 55 21 55 C18.48993391 48.88083082 15.98143989 42.76102041 13.47436523 36.640625 C12.6222523 34.56102326 11.76971904 32.48159369 10.91674805 30.40234375 C9.6868667 27.4041041 8.45852602 24.40523716 7.23046875 21.40625 C6.85222458 20.48509399 6.47398041 19.56393799 6.08427429 18.61486816 C0 3.74304835 0 3.74304835 0 0 Z " fill="#4C4C4C" transform="translate(162,7)"/>
<path d="M0 0 C0.85546875 1.9375 0.85546875 1.9375 1 4 C-1.4375 6.75 -1.4375 6.75 -4 9 C-5.155 8.484375 -6.31 7.96875 -7.5 7.4375 C-12.10995599 5.69851304 -15.21643957 5.92782266 -20 7 C-22.19920496 8.82100147 -22.19920496 8.82100147 -22.4375 11.375 C-22.24683329 14.159541 -22.24683329 14.159541 -19.9453125 15.921875 C-15.99760089 18.70726303 -11.79580259 20.75463337 -7.43945312 22.82421875 C-2.87767939 25.12573676 -0.45435518 27.34995942 2 32 C3.4116345 36.55888518 3.22058066 40.25247665 1.875 44.8125 C-1.06977903 49.81862436 -4.55449907 52.20771328 -10 54 C-18.73353592 54.84964263 -26.38765203 54.62104592 -34 50 C-33.5206753 45.68607774 -32.2542015 43.83430453 -29 41 C-28.25556641 41.433125 -28.25556641 41.433125 -27.49609375 41.875 C-22.83396047 44.42280718 -19.43770096 45.71818692 -14 45 C-10.71425831 43.64284582 -9.40075992 42.84604872 -7.875 39.625 C-7.74267108 36.80060609 -7.74267108 36.80060609 -10.0703125 34.55078125 C-14.16991159 30.98139697 -18.69618857 29.14556222 -23.625 26.94140625 C-27.97378257 24.43984961 -30.72552725 21.5489455 -33 17 C-33.5341019 12.1317925 -33.50387512 8.13371903 -31.5 3.625 C-23.2543334 -5.03294993 -10.33588962 -5.56547903 0 0 Z " fill="#4C4C4C" transform="translate(367,9)"/>
<path d="M0 0 C2.31 0 4.62 0 7 0 C7.33 19.8 7.66 39.6 8 60 C5.36 60 2.72 60 0 60 C-0.33 59.34 -0.66 58.68 -1 58 C-1.804375 58.495 -2.60875 58.99 -3.4375 59.5 C-7.82487937 61.34731763 -11.30516802 61.75859045 -16 61 C-20.80663506 58.55133686 -24.73183179 55.35055807 -26.6875 50.18359375 C-29.00696957 41.95269825 -28.46293642 34.77302896 -25 27 C-22.32044902 22.74967775 -19.75980957 20.64429785 -15 19 C-9.30667074 18.47115664 -5.17492323 18.41253839 0 21 C0 14.07 0 7.14 0 0 Z M-18 31 C-19.99159379 36.97478138 -19.79109086 43.70583652 -17.75 49.625 C-15.86150806 52.18795334 -15.07909457 53.23022636 -12 54 C-8.23984152 53.86326696 -5.64051751 53.33980943 -2.3125 51.57421875 C1.20157964 47.66243077 0.69607952 44.01713205 0.5625 38.9375 C0.57345703 38.02677734 0.58441406 37.11605469 0.59570312 36.17773438 C0.64674298 31.12874664 0.64674298 31.12874664 -1.7578125 26.91015625 C-8.39852188 24.21453729 -13.63510227 25.13466867 -18 31 Z " fill="#4C4C4C" transform="translate(811,185)"/>
<path d="M0 0 C25.78625954 0 25.78625954 0 30.64453125 4.53515625 C35.05244016 10.29934482 35.59734987 13.82073952 35 21 C33.32696203 25.92616735 30.51795413 29.39726555 26 32 C20.19968291 34.07307629 15.26273343 34 9 34 C9 40.93 9 47.86 9 55 C6.03 55 3.06 55 0 55 C0 36.85 0 18.7 0 0 Z M9 7 C9 13.6 9 20.2 9 27 C17.1117909 26.99869686 17.1117909 26.99869686 24.1875 23.75 C26.09096894 20.86197816 27 19.44911255 27 16 C25.58393694 11.24450379 25.58393694 11.24450379 22.24609375 7.80078125 C19.46576684 6.80953427 17.19488962 6.80488358 14.25 6.875 C11.65125 6.936875 11.65125 6.936875 9 7 Z " fill="#4C4C4C" transform="translate(620,190)"/>
<path d="M0 0 C11.22 0 22.44 0 34 0 C34 2.97 34 5.94 34 9 C26.08 9 18.16 9 10 9 C10 13.62 10 18.24 10 23 C16.93 23 23.86 23 31 23 C31 25.64 31 28.28 31 31 C24.07 31 17.14 31 10 31 C10 39.25 10 47.5 10 56 C6.7 56 3.4 56 0 56 C0 37.52 0 19.04 0 0 Z " fill="#4C4C4C" transform="translate(73,100)"/>
<path d="M0 0 C11.22 0 22.44 0 34 0 C34 2.64 34 5.28 34 8 C26.08 8 18.16 8 10 8 C10 12.95 10 17.9 10 23 C16.93 23 23.86 23 31 23 C31 25.64 31 28.28 31 31 C24.07 31 17.14 31 10 31 C10 38.92 10 46.84 10 55 C6.7 55 3.4 55 0 55 C0 36.85 0 18.7 0 0 Z " fill="#4C4C4C" transform="translate(197,194)"/>
<path d="M0 0 C2.64 0 5.28 0 8 0 C8.33 7.59 8.66 15.18 9 23 C10.98 21.68 12.96 20.36 15 19 C19.56391975 18.12839427 23.71866024 18.46610843 28 20.25 C30.23027537 22.20149095 30.96801246 23.23175164 32 26 C32.16811103 28.64711601 32.23305596 31.18431534 32.1953125 33.828125 C32.1924826 34.57713074 32.18965271 35.32613647 32.18673706 36.09783936 C32.1755726 38.48205776 32.15047531 40.86589579 32.125 43.25 C32.11496535 44.86978623 32.10584035 46.48957836 32.09765625 48.109375 C32.07564555 52.07306246 32.04114175 56.03646681 32 60 C29.36 60 26.72 60 24 60 C23.67 49.11 23.34 38.22 23 27 C15.65716352 26.5338504 15.65716352 26.5338504 10.11230469 29.98974609 C7.43123656 34.83520592 8.11426818 40.92781025 8.125 46.3125 C8.104375 47.62541016 8.08375 48.93832031 8.0625 50.29101562 C8.01541692 53.52797708 7.99555804 56.76276616 8 60 C5.36 60 2.72 60 0 60 C0 40.2 0 20.4 0 0 Z " fill="#4C4C4C" transform="translate(735,93)"/>
<path d="M0 0 C3.78779881 -0.39729732 7.22283652 -0.64475052 11 0 C13.44665649 2.79617884 14.46094763 4.69489639 16 8 C17.15936549 10.10851346 18.35171804 12.19646399 19.54638672 14.28515625 C21.38954259 17.50943509 23.1926963 20.7555158 25 24 C25.35827881 23.30849854 25.71655762 22.61699707 26.08569336 21.90454102 C27.70101838 18.7895148 29.31921913 15.67599157 30.9375 12.5625 C31.50146484 11.47388672 32.06542969 10.38527344 32.64648438 9.26367188 C33.45375977 7.71196289 33.45375977 7.71196289 34.27734375 6.12890625 C35.02359009 4.69140015 35.02359009 4.69140015 35.78491211 3.22485352 C37 1 37 1 38 0 C39.68608966 -0.07205511 41.37500659 -0.08386068 43.0625 -0.0625 C43.98160156 -0.05347656 44.90070313 -0.04445313 45.84765625 -0.03515625 C46.55792969 -0.02355469 47.26820313 -0.01195312 48 0 C46.19918289 4.9422425 43.71052469 9.48976227 41.25 14.125 C40.80406494 14.98101807 40.35812988 15.83703613 39.89868164 16.71899414 C37.59533206 21.11751155 35.16056075 25.28334162 32.4375 29.4375 C28.16017492 37.00414831 29.01655619 46.54806648 29 55 C25.7 55 22.4 55 19 55 C19.07863281 53.67871094 19.15726562 52.35742188 19.23828125 50.99609375 C19.63357405 35.44218146 14.93414054 25.52560554 6.61523438 12.62695312 C4.11627091 8.56273806 2.0394679 4.30916079 0 0 Z " fill="#4C4C4C" transform="translate(463,7)"/>
<path d="M0 0 C4.004793 2.0023965 6.6587028 4.17998877 9 8 C10 11 10 11 10 22 C1.42 22 -7.16 22 -16 22 C-13.81091179 29.32274016 -13.81091179 29.32274016 -9 34 C-3.35999475 34.85421439 1.66946079 33.81465165 7 32 C7.66 33.98 8.32 35.96 9 38 C2.58396979 41.9883431 -2.51859904 42.7266477 -10 42 C-15.94228154 40.25227014 -19.49448357 36.99270522 -23 32 C-24.21347754 28.35956737 -24.2224972 24.97944814 -24.25 21.1875 C-24.270625 20.48818359 -24.29125 19.78886719 -24.3125 19.06835938 C-24.35525822 13.35479206 -23.17716493 9.36024471 -19.28125 5.13671875 C-18.6934375 4.65847656 -18.105625 4.18023437 -17.5 3.6875 C-16.9121875 3.19636719 -16.324375 2.70523438 -15.71875 2.19921875 C-11.12964089 -1.00272784 -5.34529637 -0.55823553 0 0 Z M-13 9 C-15.2773501 11.81509993 -15.2773501 11.81509993 -15 15 C-9.39 15 -3.78 15 2 15 C1.23916669 9.97305364 1.23916669 9.97305364 -2 7 C-6.50909565 5.2938557 -9.01505181 6.52047668 -13 9 Z " fill="#4C4C4C" transform="translate(851,204)"/>
<path d="M0 0 C4.004793 2.0023965 6.6587028 4.17998877 9 8 C10 11 10 11 10 22 C1.42 22 -7.16 22 -16 22 C-13.27039797 31.56222773 -13.27039797 31.56222773 -9 34 C-3.37009013 34.74192611 1.68232152 33.81027352 7 32 C9 35 9 35 9.0625 37 C7.67483053 39.6120837 5.9486769 40.44386957 3.22265625 41.45703125 C-3.64460972 43.13462347 -10.1948633 42.77652622 -16.34765625 39.203125 C-20.40357196 36.24988141 -22.4525682 32.67494164 -24 28 C-24.81275191 20.36013202 -25.30721933 12.86652519 -20.43359375 6.515625 C-14.31798155 0.05007314 -8.63575845 -0.90187463 0 0 Z M-13 9 C-15.2773501 11.81509993 -15.2773501 11.81509993 -15 15 C-9.39 15 -3.78 15 2 15 C1.23916669 9.97305364 1.23916669 9.97305364 -2 7 C-6.50909565 5.2938557 -9.01505181 6.52047668 -13 9 Z " fill="#4C4C4C" transform="translate(812,20)"/>
<path d="M0 0 C4.004793 2.0023965 6.6587028 4.17998877 9 8 C10 11 10 11 10 22 C1.42 22 -7.16 22 -16 22 C-13.27039797 31.56222773 -13.27039797 31.56222773 -9 34 C-3.37009013 34.74192611 1.68232152 33.81027352 7 32 C7.66 33.98 8.32 35.96 9 38 C2.5888471 41.98531126 -2.52266924 42.73547516 -10 42 C-15.3420836 40.37261029 -18.98123314 37.76036312 -22 33 C-25.07719168 26.68895962 -24.71051222 19.82961742 -24 13 C-22.09453366 7.72453534 -18.67315187 4.07444202 -14 1 C-9.37164486 -0.54278505 -4.8335155 -0.50478774 0 0 Z M-13 9 C-15.2773501 11.81509993 -15.2773501 11.81509993 -15 15 C-9.39 15 -3.78 15 2 15 C1.23916669 9.97305364 1.23916669 9.97305364 -2 7 C-6.50909565 5.2938557 -9.01505181 6.52047668 -13 9 Z " fill="#4C4C4C" transform="translate(713,204)"/>
<path d="M0 0 C4.004793 2.0023965 6.6587028 4.17998877 9 8 C10 11 10 11 10 22 C1.42 22 -7.16 22 -16 22 C-13.81091179 29.32274016 -13.81091179 29.32274016 -9 34 C-3.35999475 34.85421439 1.66946079 33.81465165 7 32 C7.66 33.98 8.32 35.96 9 38 C2.5888471 41.98531126 -2.52266924 42.73547516 -10 42 C-15.3420836 40.37261029 -18.98123314 37.76036312 -22 33 C-25.07719168 26.68895962 -24.71051222 19.82961742 -24 13 C-22.09453366 7.72453534 -18.67315187 4.07444202 -14 1 C-9.37164486 -0.54278505 -4.8335155 -0.50478774 0 0 Z M-13 9 C-15.2773501 11.81509993 -15.2773501 11.81509993 -15 15 C-9.39 15 -3.78 15 2 15 C1.23916669 9.97305364 1.23916669 9.97305364 -2 7 C-6.50909565 5.2938557 -9.01505181 6.52047668 -13 9 Z " fill="#4C4C4C" transform="translate(800,112)"/>
<path d="M0 0 C4.75144381 1.6581721 7.83567967 4.28149066 10.4375 8.5625 C13.35702264 14.98544982 14.18603948 21.53448989 12.3515625 28.44140625 C10.15777483 33.98212638 7.00310205 37.74972489 2 41 C-3.61896316 42.87298772 -9.17402691 42.53881173 -14.8125 40.875 C-20.07382924 37.78010045 -23.0986162 33.85492192 -25 28 C-25.80512578 20.16406652 -26.08254409 12.41516235 -21 6 C-14.6064188 -0.49144214 -8.8631031 -0.90185961 0 0 Z M-16 13 C-17.74376309 18.23128926 -17.77540854 23.7014021 -15.75 28.875 C-13.61782389 32.76256646 -13.61782389 32.76256646 -10 35 C-5.21696627 35.60736936 -3.1707665 35.76354337 0.875 33.125 C4.17791787 28.26776783 5.55500648 23.36145431 4.5859375 17.4921875 C3.30667674 13.2326709 1.91993479 9.37259211 -2 7 C-9.04179458 5.5070867 -12.24395572 7.01380443 -16 13 Z " fill="#4C4C4C" transform="translate(641,112)"/>
<path d="M0 0 C14.19 0 28.38 0 43 0 C43 2.64 43 5.28 43 8 C37.72 8 32.44 8 27 8 C27 23.51 27 39.02 27 55 C23.7 55 20.4 55 17 55 C17 39.49 17 23.98 17 8 C11.39 8 5.78 8 0 8 C0 5.36 0 2.72 0 0 Z " fill="#4C4C4C" transform="translate(411,7)"/>
<path d="M0 0 C3.63 0 7.26 0 11 0 C11 15.51 11 31.02 11 47 C18.59 47 26.18 47 34 47 C34 49.64 34 52.28 34 55 C22.78 55 11.56 55 0 55 C0 36.85 0 18.7 0 0 Z " fill="#4C4C4C" transform="translate(120,194)"/>
<path d="M0 0 C3.68623011 1.61272567 4.75355 2.630325 7 6 C7.17162025 8.68594915 7.23224552 11.26544901 7.1953125 13.94921875 C7.1924826 14.72183548 7.18965271 15.49445221 7.18673706 16.29048157 C7.17554878 18.75631243 7.15044703 21.22177906 7.125 23.6875 C7.11496843 25.36002079 7.10584289 27.03254728 7.09765625 28.70507812 C7.07561392 32.80352559 7.04109363 36.90170106 7 41 C4.69 41 2.38 41 0 41 C-0.02505615 40.21351074 -0.0501123 39.42702148 -0.07592773 38.61669922 C-0.19232866 35.03598506 -0.31485487 31.4555055 -0.4375 27.875 C-0.47681641 26.6375 -0.51613281 25.4 -0.55664062 24.125 C-0.59853516 22.92617187 -0.64042969 21.72734375 -0.68359375 20.4921875 C-0.72025146 19.39245605 -0.75690918 18.29272461 -0.79467773 17.15966797 C-0.99683479 14.04870884 -1.43289894 11.06355662 -2 8 C-3.19625 7.896875 -4.3925 7.79375 -5.625 7.6875 C-6.29789063 7.62949219 -6.97078125 7.57148438 -7.6640625 7.51171875 C-10.48763223 8.10192981 -12.59822798 9.07120818 -14.76025391 11.00073242 C-17.67992392 15.70911717 -16.88568035 21.95363384 -16.875 27.3125 C-16.895625 28.62541016 -16.91625 29.93832031 -16.9375 31.29101562 C-16.98458308 34.52797708 -17.00444196 37.76276616 -17 41 C-19.64 41 -22.28 41 -25 41 C-25 27.8 -25 14.6 -25 1 C-22.36 1 -19.72 1 -17 1 C-16.67 1.99 -16.34 2.98 -16 4 C-15.21625 3.34 -14.4325 2.68 -13.625 2 C-9.35920217 -0.84724273 -4.95184735 -0.69441599 0 0 Z " fill="#4C4C4C" transform="translate(895,204)"/>
<path d="M0 0 C-0.33 2.31 -0.66 4.62 -1 7 C-2.2375 6.9175 -3.475 6.835 -4.75 6.75 C-7.70303882 6.77613309 -8.83037457 6.89996449 -11.4375 8.4375 C-13.75379007 12.23621572 -13.73979921 15.57658659 -14 20 C-10.7 20 -7.4 20 -4 20 C-4 21.98 -4 23.96 -4 26 C-7.3 26 -10.6 26 -14 26 C-14 37.22 -14 48.44 -14 60 C-16.64 60 -19.28 60 -22 60 C-22 48.78 -22 37.56 -22 26 C-24.31 26 -26.62 26 -29 26 C-29 24.02 -29 22.04 -29 20 C-26.69 20 -24.38 20 -22 20 C-22.04640625 19.28714844 -22.0928125 18.57429688 -22.140625 17.83984375 C-22.38760106 11.28615753 -22.27254508 7.1270541 -18 2 C-12.42486136 -1.37410777 -6.1950426 -2.0650142 0 0 Z " fill="#4C4C4C" transform="translate(705,1)"/>
<path d="M0 0 C-0.33 1.98 -0.66 3.96 -1 6 C-4.93905597 7.14889133 -8.93565958 7.52582695 -13 8 C-13.66 11.96 -14.32 15.92 -15 20 C-11.7 20 -8.4 20 -5 20 C-5 21.98 -5 23.96 -5 26 C-8.3 26 -11.6 26 -15 26 C-15 37.22 -15 48.44 -15 60 C-17.64 60 -20.28 60 -23 60 C-23 48.78 -23 37.56 -23 26 C-24.98 26 -26.96 26 -29 26 C-29 24.02 -29 22.04 -29 20 C-27.02 20 -25.04 20 -23 20 C-23.0928125 18.2675 -23.0928125 18.2675 -23.1875 16.5 C-23.16642109 10.55574621 -21.80901368 5.80901368 -17.5625 1.5625 C-12.17910237 -1.72005953 -6.0263731 -1.92843939 0 0 Z " fill="#4C4C4C" transform="translate(732,1)"/>
<path d="M0 0 C0.928125 0.495 1.85625 0.99 2.8125 1.5 C2.0625 3.9375 2.0625 3.9375 0.8125 6.5 C-1.1875 7.375 -1.1875 7.375 -3.1875 7.5 C-3.8475 7.17 -4.5075 6.84 -5.1875 6.5 C-6.89452735 6.43003986 -8.60418003 6.41559846 -10.3125 6.4375 C-11.22257813 6.44652344 -12.13265625 6.45554688 -13.0703125 6.46484375 C-14.11832031 6.48224609 -14.11832031 6.48224609 -15.1875 6.5 C-14.31900391 10.50974492 -13.76123264 12.11570738 -10.2890625 14.44140625 C-9.14179687 14.97636719 -7.99453125 15.51132813 -6.8125 16.0625 C-2.09876599 18.28104072 0.9799411 20.04883602 3.8125 24.5 C4.73464043 28.33378068 4.13604754 31.69113114 2.6875 35.3125 C-0.42643264 38.94542141 -3.21109569 40.29961456 -8 40.78515625 C-14.18335069 40.96292758 -18.74543345 40.46839993 -24.1875 37.5 C-23.62378586 34.23045798 -22.68787734 32.67424117 -20.1875 30.5 C-19.62289062 30.82613281 -19.05828125 31.15226562 -18.4765625 31.48828125 C-15.95930292 32.60085844 -14.2959399 32.73778067 -11.5625 32.6875 C-10.39847656 32.67783203 -10.39847656 32.67783203 -9.2109375 32.66796875 C-7.1187732 32.62050633 -7.1187732 32.62050633 -5.1875 31.5 C-5.15317426 29.12456722 -5.15317426 29.12456722 -6.1875 26.5 C-8.49224392 24.91733058 -10.5847718 23.67141853 -13.0625 22.4375 C-21.14392976 18.31515452 -21.14392976 18.31515452 -23.1875 14.5 C-24.00807048 10.73905196 -24.02619433 7.04885313 -22.16796875 3.6171875 C-16.87288456 -3.00566704 -7.49840837 -3.25084371 0 0 Z " fill="#4C4C4C" transform="translate(753.1875,205.5)"/>
<path d="M0 0 C-0.33 2.31 -0.66 4.62 -1 7 C-2.2375 6.938125 -3.475 6.87625 -4.75 6.8125 C-7.46067878 6.67696606 -8.77760928 6.87927361 -11.1875 8.1875 C-13.46972831 10.46972831 -13.75742631 12.02681879 -14.25 15.1875 C-14.62125 17.5696875 -14.62125 17.5696875 -15 20 C-11.7 20 -8.4 20 -5 20 C-5 21.98 -5 23.96 -5 26 C-8.3 26 -11.6 26 -15 26 C-15 37.22 -15 48.44 -15 60 C-17.31 60 -19.62 60 -22 60 C-22 48.78 -22 37.56 -22 26 C-24.31 26 -26.62 26 -29 26 C-29 24.02 -29 22.04 -29 20 C-26.69 20 -24.38 20 -22 20 C-22.04640625 19.20335938 -22.0928125 18.40671875 -22.140625 17.5859375 C-22.3074723 12.68777734 -22.42724995 8.97412988 -20.4375 4.4375 C-14.74515311 -1.25484689 -7.58583786 -2.42746811 0 0 Z " fill="#4C4C4C" transform="translate(686,93)"/>
<path d="M0 0 C1.62890625 0.828125 1.62890625 0.828125 3.87890625 2.328125 C3.00390625 7.078125 3.00390625 7.078125 1.87890625 9.328125 C1.23953125 8.998125 0.60015625 8.668125 -0.05859375 8.328125 C-4.18318404 6.98132001 -7.82686959 6.61242097 -12.12109375 7.328125 C-15.51346139 9.37768045 -16.76980047 10.94271212 -17.74609375 14.79296875 C-18.55084949 20.76995671 -18.49187717 27.09550091 -15.12109375 32.328125 C-9.44583106 34.50733265 -3.62907136 33.47757968 1.87890625 31.328125 C2.86890625 33.308125 3.85890625 35.288125 4.87890625 37.328125 C0.01836995 41.32070839 -4.36027492 41.68205059 -10.51953125 41.609375 C-15.89300788 41.02845861 -19.72297113 38.72624762 -23.49609375 34.953125 C-27.87346409 27.88198829 -28.17428425 20.07280043 -26.69140625 11.984375 C-25.03103228 6.65477953 -21.74058684 3.36229205 -17.12109375 0.328125 C-11.8714248 -1.42176465 -5.31679949 -1.68414275 0 0 Z " fill="#4C4C4C" transform="translate(779.12109375,20.671875)"/>
<path d="M0 0 C2.64 0 5.28 0 8 0 C8 3.63 8 7.26 8 11 C10.97 11 13.94 11 17 11 C17 12.98 17 14.96 17 17 C14.03 17 11.06 17 8 17 C8.33 25.58 8.66 34.16 9 43 C13.76881134 44.03453058 13.76881134 44.03453058 18 43 C18.66 45.31 19.32 47.62 20 50 C15.47146089 52.33731051 10.99213486 52.7596727 6 52 C3.12970131 50.20606332 1.50868362 49.01736724 0 46 C-0.08559118 43.82175039 -0.10713412 41.64084745 -0.09765625 39.4609375 C-0.09282227 37.50800781 -0.09282227 37.50800781 -0.08789062 35.515625 C-0.07953466 34.13541601 -0.07106971 32.75520768 -0.0625 31.375 C-0.05748501 29.98698074 -0.0529221 28.59895978 -0.04882812 27.2109375 C-0.03700976 23.80724868 -0.02053434 20.40364561 0 17 C-2.31 17 -4.62 17 -7 17 C-7 15.02 -7 13.04 -7 11 C-4.69 11 -2.38 11 0 11 C0 7.37 0 3.74 0 0 Z " fill="#4C4C4C" transform="translate(916,194)"/>
<path d="M0 0 C2.64 0 5.28 0 8 0 C8 3.63 8 7.26 8 11 C11.3 11 14.6 11 18 11 C18 12.98 18 14.96 18 17 C14.7 17 11.4 17 8 17 C8.13839953 21.12528499 8.2869741 25.25014108 8.4375 29.375 C8.47681641 30.550625 8.51613281 31.72625 8.55664062 32.9375 C8.61948242 34.61972656 8.61948242 34.61972656 8.68359375 36.3359375 C8.72025146 37.37282715 8.75690918 38.4097168 8.79467773 39.47802734 C8.84164223 41.99425166 8.84164223 41.99425166 10 44 C12.64 43.67 15.28 43.34 18 43 C19.36741555 45.25221384 20.04066478 46.52557758 19.8125 49.1875 C19.4103125 50.0846875 19.4103125 50.0846875 19 51 C13.98599222 52.67133593 9.01856696 52.7730682 4.0625 50.875 C0.75034891 47.86395355 0.09704429 44.31124577 -0.22705078 39.93212891 C-0.21657715 38.87429199 -0.20610352 37.81645508 -0.1953125 36.7265625 C-0.18564453 34.99599609 -0.18564453 34.99599609 -0.17578125 33.23046875 C-0.15902344 32.04066406 -0.14226563 30.85085937 -0.125 29.625 C-0.11597656 28.41199219 -0.10695313 27.19898438 -0.09765625 25.94921875 C-0.07416588 22.96594227 -0.04131682 19.98307406 0 17 C-1.98 17 -3.96 17 -6 17 C-6 15.02 -6 13.04 -6 11 C-4.02 11 -2.04 11 0 11 C0 7.37 0 3.74 0 0 Z " fill="#4C4C4C" transform="translate(708,102)"/>
<path d="M0 0 C3.3 0 6.6 0 10 0 C10 18.15 10 36.3 10 55 C6.7 55 3.4 55 0 55 C0 36.85 0 18.7 0 0 Z " fill="#4C4C4C" transform="translate(434,194)"/>
<path d="M0 0 C3.3 0 6.6 0 10 0 C10 18.15 10 36.3 10 55 C6.7 55 3.4 55 0 55 C0 36.85 0 18.7 0 0 Z " fill="#4C4C4C" transform="translate(168,194)"/>
<path d="M0 0 C3.3 0 6.6 0 10 0 C10 18.15 10 36.3 10 55 C6.7 55 3.4 55 0 55 C0 36.85 0 18.7 0 0 Z " fill="#4C4C4C" transform="translate(387,7)"/>
<path d="M0 0 C3.3 0 6.6 0 10 0 C10 18.15 10 36.3 10 55 C6.7 55 3.4 55 0 55 C0 36.85 0 18.7 0 0 Z " fill="#4C4C4C" transform="translate(137,7)"/>
<path d="M0 0 C-0.33 2.64 -0.66 5.28 -1 8 C-2.98567708 8.22786458 -4.97135417 8.45572917 -6.95703125 8.68359375 C-9.19396393 8.97170735 -9.19396393 8.97170735 -12 10 C-13.97772944 13.7056448 -14.29125846 17.0209112 -14.4140625 21.17578125 C-14.45273437 22.33271484 -14.49140625 23.48964844 -14.53125 24.68164062 C-14.57765625 26.47891602 -14.57765625 26.47891602 -14.625 28.3125 C-14.66367187 29.53001953 -14.70234375 30.74753906 -14.7421875 32.00195312 C-14.83628002 35.00115228 -14.92192209 38.00034823 -15 41 C-17.31 41 -19.62 41 -22 41 C-22 27.8 -22 14.6 -22 1 C-19.69 1 -17.38 1 -15 1 C-14.67 1.99 -14.34 2.98 -14 4 C-13.360625 3.34 -12.72125 2.68 -12.0625 2 C-7.95535747 -0.68221553 -4.76620171 -0.37381974 0 0 Z " fill="#4C4C4C" transform="translate(686,204)"/>
<path d="M0 0 C2.64 0 5.28 0 8 0 C8 13.2 8 26.4 8 40 C5.36 40 2.72 40 0 40 C0 26.8 0 13.6 0 0 Z " fill="#4C4C4C" transform="translate(766,205)"/>
<path d="M0 0 C2.64 0 5.28 0 8 0 C8 13.2 8 26.4 8 40 C5.36 40 2.72 40 0 40 C0 26.8 0 13.6 0 0 Z " fill="#4C4C4C" transform="translate(735,21)"/>
<path d="M0 0 C2 3 2 3 1.75 5.5625 C1 8 1 8 -1 10 C-4.625 9.625 -4.625 9.625 -8 9 C-9.32561852 2.61292897 -9.32561852 2.61292897 -7.9375 0 C-4.99948754 -1.51639353 -3.09843192 -0.92293717 0 0 Z " fill="#4C4C4C" transform="translate(774,189)"/>
<path d="M0 0 C2.875 0.6875 2.875 0.6875 3.875 1.6875 C4.125 5.125 4.125 5.125 3.875 8.6875 C0.875 10.6875 0.875 10.6875 -2.25 10.375 C-5.125 9.6875 -5.125 9.6875 -6.125 8.6875 C-6.375 5.25 -6.375 5.25 -6.125 1.6875 C-3.125 -0.3125 -3.125 -0.3125 0 0 Z " fill="#4C4C4C" transform="translate(740.125,4.3125)"/>
</svg>
